<?xml version="1.0" encoding="UTF-8" standalone="no"?>
<!DOCTYPE svg PUBLIC "-//W3C//DTD SVG 1.1//EN" "http://www.w3.org/Graphics/SVG/1.1/DTD/svg11.dtd">
<svg width="100%" height="100%" viewBox="0 0 1124 1621" version="1.1" xmlns="http://www.w3.org/2000/svg" xmlns:xlink="http://www.w3.org/1999/xlink" xml:space="preserve" xmlns:serif="http://www.serif.com/" style="fill-rule:evenodd;clip-rule:evenodd;stroke-linejoin:round;stroke-miterlimit:2;">
    <g id="Page-1" serif:id="Page 1" transform="matrix(1.871668,0,0,4.208212,0,0)">
        <rect x="0" y="0" width="600.436" height="385.125" style="fill:none;"/>
        <g id="Layer-1" serif:id="Layer 1" transform="matrix(2.226179,0,0,0.990128,0,0)">
            <g transform="matrix(1,0,0,1,231.7606,201.6815)">
                <path d="M0,-12.752C-0.78,-13.306 -1.579,-13.9 -2.401,-14.514C-4.223,-15.874 -6.107,-17.279 -8.257,-18.606C-11.6,-20.669 -15.051,-22.513 -18.388,-24.295C-19.828,-25.065 -21.293,-25.847 -22.782,-26.665L-36.75,-34.33L-37.952,-18.443C-38.194,-15.235 -38.889,-12.972 -46.04,-10.817L-67.807,-4.26L-48.49,7.727C-46.839,8.751 -45.214,9.77 -43.605,10.779C-39.203,13.54 -35.043,16.148 -30.657,18.695C-30.088,19.024 -29.316,19.437 -28.385,19.847L-28.123,20.38L-25.346,20.932C-24.512,21.161 -23.625,21.345 -22.699,21.458L-22.157,21.565L-21.341,21.565C-21.126,21.574 -20.911,21.578 -20.698,21.578C-19.786,21.578 -18.891,21.497 -18.118,21.351C-18.086,21.346 -18.056,21.34 -18.025,21.334C-10.936,20.554 1.263,17.974 7.249,9.465L7.384,9.268C10.556,4.529 10.878,-0.933 8.647,-5.175C5.468,-8.241 2.482,-10.781 0,-12.752" style="fill:rgb(35,31,32);fill-rule:nonzero;"/>
            </g>
            <g transform="matrix(1,0,0,1,256.8997,200.0967)">
                <path d="M0,30.473C0.393,30.019 0.752,29.565 1.08,29.11L3.633,27.258L3.633,23.248C-4.802,6.144 -18.662,-6.18 -26.339,-12.108L-31.488,-1.986C-34.053,3.054 -38.158,4.226 -45.797,6.024L-62.43,9.941L-51.654,22.714C-50.55,24.023 -49.424,25.31 -48.3,26.594C-46.456,28.702 -44.687,30.721 -43.11,32.745L-50.783,41.234L-29.767,42.439C-29.043,42.534 -28.309,42.581 -27.573,42.581C-26.869,42.581 -26.149,42.537 -25.396,42.446C-23.218,42.325 -20.085,41.981 -16.679,41.058C-15.084,40.66 -13.41,40.172 -11.801,39.361C-6.995,37.296 -3.028,34.31 0,30.473" style="fill:rgb(35,31,32);fill-rule:nonzero;"/>
            </g>
            <g transform="matrix(1,0,0,1,259.9959,211.4445)">
                <path d="M0,51.925L0.762,51.5C1.915,50.856 5.307,48.667 7.707,44.192C7.724,42.207 7.696,40.179 7.588,38.078C6.729,21.315 -0.882,7.103 -9.437,-3.757L-16.382,7.293C-18.845,11.212 -22.268,13.821 -30.967,13.822L-46.684,13.747L-40.693,28.048C-40.463,28.598 -40.25,29.093 -40.052,29.557C-39.748,30.267 -39.484,30.873 -39.249,31.493C-38.826,32.614 -38.382,33.731 -37.939,34.847C-36.955,37.33 -36.024,39.675 -35.389,41.909C-34.716,44.279 -34.046,46.421 -32.763,48.445C-31.13,51.171 -27.01,55.682 -17.642,55.682C-12.933,55.682 -7.431,54.547 -0.824,52.215L0,51.925Z" style="fill:rgb(35,31,32);fill-rule:nonzero;"/>
            </g>
            <g transform="matrix(1,0,0,1,253.3773,233.7152)">
                <path d="M0,58.583L4.799,53.205C6.604,51.968 8.267,50.505 9.759,48.843L10.101,48.462C12.967,39.79 14.88,28.94 14.207,15.808C13.922,10.248 12.893,4.97 11.334,0L-0.75,11.986C-3.436,14.649 -6.348,15.785 -10.489,15.785C-11.875,15.785 -13.409,15.66 -15.176,15.401L-25.022,13.965L-31.763,51.89L-24.512,55.185C-24.296,55.283 -23.706,55.543 -22.817,55.867C-21.631,56.311 -20.433,56.673 -19.242,56.95C-19.242,56.95 -18.92,57.028 -18.817,57.051C-16.21,57.661 -13.593,57.971 -11.037,57.971C-8.189,57.971 -5.466,57.594 -2.89,56.846L0,58.583Z" style="fill:rgb(35,31,32);fill-rule:nonzero;"/>
            </g>
            <g transform="matrix(-0.264311,0.964438,0.964438,0.264311,196.721364,12.838172)">
                <path d="M16.218,-3.745C16.218,-3.745 4.134,-2.174 -10.549,8.698C-10.549,8.698 7.854,9.485 16.218,13.905C24.582,18.326 21.398,10.537 20.638,5.542C19.88,0.546 16.218,-3.745 16.218,-3.745" style="fill:rgb(35,31,32);fill-rule:nonzero;"/>
            </g>
            <g transform="matrix(1,0,0,1,205.5032,24.4608)">
                <path d="M0,-3.937C-0.684,-4.79 0.855,-13 15.221,-23.261C15.221,-23.261 6.705,4.613 8.911,11.968C11.117,19.324 11.547,11.761 5.986,11.968C0.425,12.175 -2.008,9.576 -3.912,8.549C-5.814,7.523 -7.445,7.523 -7.143,4.445C-6.84,1.367 0,-3.937 0,-3.937" style="fill:rgb(35,31,32);fill-rule:nonzero;"/>
            </g>
            <g transform="matrix(1,0,0,1,195.2825,382.7383)">
                <path d="M0,-63.57C-0.205,-63.549 -0.413,-63.541 -0.617,-63.525C-11.701,-62.718 -14.175,-55.483 -14.664,-51.243C-15.522,-43.785 -19.314,-37.745 -26.958,-31.656C-28.466,-30.455 -30.603,-29.346 -32.866,-28.173C-33.856,-27.66 -34.872,-27.132 -35.911,-26.561C-38.526,-25.617 -41.189,-25.105 -43.847,-25.04C-48.141,-25.567 -51.013,-25.937 -52.333,-26.448C-52.368,-26.463 -52.402,-26.477 -52.437,-26.492C-53.531,-26.949 -55.306,-28.33 -58.246,-30.617L-104.102,-66.157L-74.734,-18.271C-74.629,-18.101 -74.584,-18.006 -74.582,-18.001L-74.319,-17.12L-73.737,-16.198C-73.619,-15.982 -73.132,-15.058 -72.698,-13.761L-72.388,-12.84L-71.911,-11.993C-71.48,-11.229 -69.679,-8.258 -66.178,-5.081C-62.494,-1.874 -52.896,4.687 -37.074,3.428C-31.103,2.649 -24.834,0.627 -18.362,-2.628L-17.803,-2.909L-17.283,-3.257C-10.758,-7.603 -5.705,-11.784 -1.379,-16.415C7.937,-26.388 12.707,-38.483 13.201,-53.393L13.694,-68.257L0,-63.57Z" style="fill:rgb(35,31,32);fill-rule:nonzero;"/>
            </g>
            <g transform="matrix(1,0,0,1,190.7152,200.1657)">
                <path d="M0,-5.846C-2.071,-6.817 -4.146,-7.783 -6.222,-8.749C-14.419,-12.563 -22.895,-16.507 -30.912,-20.723C-44.278,-27.752 -54.21,-35.165 -62.171,-44.055C-70.35,-53.189 -73.677,-61.648 -72.957,-71.482C-72.203,-81.788 -67.916,-89.25 -59.463,-94.961C-53.305,-99.122 -46.246,-101.061 -37.246,-101.061C-33.814,-101.061 -30.027,-100.781 -25.667,-100.204C-24.035,-99.988 -22.26,-99.634 -20.38,-99.258C-19.37,-99.057 -18.34,-98.851 -17.278,-98.654L1.23,-95.218L-5.909,-112.635C-6.833,-114.888 -7.918,-116.899 -9.129,-118.704C-8.418,-118.602 -7.97,-118.509 -7.786,-118.468L32.214,-104.94C31.863,-107.514 32.568,-110.225 34.037,-112.315L1.141,-136.59C-4.426,-140.698 -11.585,-143.436 -20.144,-144.73C-23.847,-145.453 -27.384,-145.82 -30.658,-145.82C-30.968,-145.82 -31.276,-145.816 -31.583,-145.81C-38.214,-145.673 -46.076,-145.369 -54.122,-144.161C-68.793,-141.959 -80.927,-136.477 -90.184,-127.868C-108.653,-110.692 -115.445,-87.623 -110.373,-59.303C-107.105,-41.068 -97.012,-25.22 -80.373,-12.198C-62.705,1.63 -42.723,11.034 -23.398,20.13C-21.548,21 -19.698,21.871 -17.85,22.746C-13.312,24.893 -8.521,27.276 -4.242,30.146L-3.932,30.349L-3.651,30.513C-2.745,31.042 18.522,43.68 15.185,63.458L14.68,66.448C14.393,67.221 14.111,67.976 13.83,68.718L13.744,68.953C13.457,69.768 13.169,70.5 12.889,71.125L12.771,71.402C12.333,72.463 11.925,73.378 11.525,74.195C7.988,81.427 2.362,87.861 -6.18,94.44C-15.538,101.651 -25.948,106.238 -37.12,108.073C-43.52,109.125 -48.673,109.614 -53.335,109.614C-56.137,109.614 -58.74,109.441 -61.293,109.087C-64.523,108.638 -67.278,108.125 -69.698,107.519C-71.865,106.765 -73.322,106.073 -74.279,105.529C-73.54,104.785 -72.602,103.995 -71.78,103.461L-57.27,94.323C-57.42,94.262 -57.57,94.202 -57.717,94.136C-62.965,95.978 -68.245,97.109 -73.977,96.846C-80.896,96.529 -83.071,90.186 -81.353,85.041C-89.874,86.582 -95.836,89.822 -99.512,94.916C-102.638,99.249 -103.723,104.477 -102.648,110.038L-102.369,111.478L-102.266,111.679C-101.72,113.709 -100.974,115.419 -100.361,116.63C-99.787,117.861 -98.449,120.559 -95.873,122.493C-90.356,128.499 -83.25,132.922 -74.714,135.654C-68.917,137.508 -60.105,139.974 -50.558,139.974L-50.557,139.974C-47.379,139.974 -44.223,139.705 -41.176,139.175C-38.465,138.701 -35.669,138.366 -32.708,138.01C-28.133,137.463 -23.401,136.895 -18.583,135.758C-8.934,133.477 0.761,129.267 11.923,122.507C27.155,113.279 38.5,101.473 45.639,87.416C55.267,68.46 53.864,48.311 41.582,29.149C32.026,14.241 18.425,2.794 0,-5.846" style="fill:rgb(35,31,32);fill-rule:nonzero;"/>
            </g>
            <g transform="matrix(1,0,0,1,136.3997,290.9103)">
                <path d="M0,35.631C-11.361,34.922 -20.396,32.392 -28.433,27.67C-33.983,24.409 -37.07,19.031 -36.688,13.285C-36.309,7.56 -32.56,2.657 -26.66,0.174C-21.916,-1.824 -17.02,-3.03 -12.501,-3.315C-10.65,-3.432 -8.757,-3.491 -6.879,-3.491C5.754,-3.491 18.785,-0.915 34.13,4.617L34.731,4.833C37.416,5.796 40.755,6.993 44.408,9.236L62.259,20.199L42.655,27.583C41.449,28.037 40.235,28.474 39.021,28.91C37.948,29.297 36.899,29.674 35.88,30.055L55.946,39.122L0,35.631Z" style="fill:rgb(35,31,32);fill-rule:nonzero;"/>
            </g>
            <g transform="matrix(1,0,0,1,136.1673,106.3047)">
                <path d="M0,59.43C-10.066,59.43 -18.001,56.692 -21.433,55.275C-27.377,53.374 -29.776,47.85 -31.215,44.536C-31.343,44.241 -31.467,43.953 -31.59,43.685C-34.988,36.186 -36.261,28.83 -35.597,20.535L-33.954,0L-18.554,13.683C-14.787,17.029 -10.746,18.522 -5.45,18.521C-2.765,18.521 0.243,18.144 4.018,17.334L12.185,15.581L25.26,45.192L22.917,49.596C19.257,56.472 12.322,58.136 10.076,58.501C6.785,59.118 3.396,59.43 0,59.43" style="fill:rgb(35,31,32);fill-rule:nonzero;"/>
            </g>
            <g transform="matrix(1,0,0,1,133.2703,89.1183)">
                <path d="M0,54.53C-1.223,54.53 -2.105,54.437 -2.522,54.381L-2.819,54.337C-17.506,51.933 -24.429,45.704 -26.958,42.76C-30.615,39.093 -32.274,32.911 -30.606,28.098C-28.518,22.052 -25.206,14.246 -18.084,7.564L-10.025,0L-3.08,8.599C0.691,13.269 6.884,14.702 14.057,16.363L15.908,16.795L26.075,19.189L23.5,29.311C23.205,30.473 22.945,31.624 22.687,32.759C21.937,36.062 21.161,39.477 19.721,42.974C19.125,44.423 18.245,45.764 17.1,46.965C12.957,51.78 6.759,54.53 0,54.53" style="fill:rgb(35,31,32);fill-rule:nonzero;"/>
            </g>
            <g transform="matrix(1,0,0,1,146.2581,86.8438)">
                <path d="M0,36.805C-3.996,36.805 -8.396,35.835 -13.075,33.921C-19.974,31.098 -24.839,27.344 -27.554,22.752L-32.616,15.822L-26.278,9.609C-19.919,3.376 -11.979,1.355 -8.859,0.775L-8.653,0.739C-5.68,0.249 -2.519,0 0.743,0C8.79,0 17.832,1.433 27.617,4.258L36.498,6.822L34.871,15.922C33.526,23.447 27.042,25.648 23.926,26.706C22.247,27.275 20.352,27.919 17.975,29.213C16.625,30.063 15.301,30.899 13.999,31.725C13.339,32.183 12.69,32.599 12.033,32.986C11.01,33.799 9.567,34.719 7.649,35.458L7.372,35.561C5.132,36.385 2.647,36.805 0,36.805" style="fill:rgb(35,31,32);fill-rule:nonzero;"/>
            </g>
            <g transform="matrix(1,0,0,1,152.2357,308.508)">
                <path d="M0,67.465C-4.024,67.465 -8.282,66.999 -13.017,66.04C-19.433,64.741 -24.322,60.228 -27.556,57.241C-34.849,50.513 -35.221,38.861 -28.385,31.27C-25.828,28.429 -22.813,26.519 -20.204,25.026L23.542,0L-6.654,39.767C-6.329,39.823 -5.951,39.88 -5.511,39.933C-4.64,40.038 -3.789,40.091 -2.98,40.091C1.37,40.091 4.931,38.558 8.227,35.267C10.446,33.05 10.595,31.111 10.477,29.669C10.125,25.43 11.165,21.857 13.568,19.05C15.985,16.23 19.406,14.641 23.737,14.33C26.161,14.157 28.749,13.756 31.487,13.332C32.812,13.128 34.155,12.921 35.524,12.73L48.85,10.866L47.122,24.209C44.891,41.436 34.582,51.732 27.022,57.977C19.4,64.273 10.308,67.465 0,67.465" style="fill:rgb(35,31,32);fill-rule:nonzero;"/>
            </g>
            <g transform="matrix(1,0,0,1,222.5486,327.2139)">
                <path d="M0,1.056C-0.759,-2.481 0.296,-6.066 2.459,-8.806L-18.605,-12.218C-19.721,-12.4 -21.032,-12.739 -22.42,-13.097C-25.428,-13.875 -28.837,-14.757 -32.726,-14.757C-37.184,-14.757 -41.325,-13.555 -45.005,-11.205C-45.06,-11.174 -45.275,-11.08 -45.611,-11.004C-53.224,-9.275 -60.904,-7.58 -68.332,-5.941L-106.78,2.566C-104.843,6.768 -104.73,11.89 -107.318,15.69L-71.943,15.813C-51.157,15.813 -33.168,13.135 -16.945,7.626L0.195,1.806C0.123,1.559 0.055,1.311 0,1.056" style="fill:rgb(35,31,32);fill-rule:nonzero;"/>
            </g>
            <g transform="matrix(1,0,0,1,203.513,294.4042)">
                <path d="M0,39.018C-9.551,39.018 -15.253,33.927 -16.299,32.906L-24.823,24.589L-9.919,13.273C-5.451,9.879 -1.045,6.533 3.364,3.194C6.159,1.076 9.202,0 12.407,0C14.617,0 16.799,0.502 19.076,1.534C21.34,2.558 24.017,3.364 26.851,4.217C28.228,4.631 29.612,5.049 30.992,5.498L47.301,10.813L34.907,22.669C28.908,28.41 21.323,32.962 12.358,36.208C8.291,38.061 4.108,39.018 0.001,39.018L0,39.018Z" style="fill:rgb(35,31,32);fill-rule:nonzero;"/>
            </g>
            <g transform="matrix(1,0,0,1,229.577,271.3279)">
                <path d="M0,45.15C-3.721,45.148 -7.382,44.273 -10.9,42.545C-14.316,41.248 -16.719,38.953 -18.278,37.268L-23.783,31.323L-19.277,24.588C-18.345,23.195 -17.42,21.808 -16.5,20.426C-13.738,16.279 -10.882,11.99 -7.977,7.814C-5.995,4.965 -1.914,1.64 3.061,1.64C3.832,1.64 4.601,1.719 5.348,1.877C7.094,2.245 8.783,2.43 10.374,2.43C13.063,2.43 15.578,1.914 18.062,0.853C19.375,0.29 20.786,0 22.242,0C23.286,0 24.156,0.151 24.801,0.301L35.87,1.99L32.714,13.171C32.223,14.908 31.597,16.683 30.848,18.455C30.55,19.271 30.154,20.134 29.632,21.117C27.995,24.443 25.994,27.614 23.68,30.552C15.4,42.607 6.246,45.15 0.001,45.15L0,45.15Z" style="fill:rgb(35,31,32);fill-rule:nonzero;"/>
            </g>
            <g transform="matrix(1,0,0,1,257.4407,53.9251)">
                <path d="M0,73.625L-0.093,72.743L-0.337,71.889C-2.419,64.591 -9.186,61.446 -12.884,60.245C-15.868,57.81 -17.187,51.559 -16.401,48.441C-14.82,42.169 -14.356,34.292 -16.886,28.415C-13.716,18.646 -17.289,9.237 -18.194,7.116C-19.227,4.53 -24.891,-8.008 -39.928,-14.883C-41.157,-15.445 -44.034,-16.76 -43.218,-20.262C-43.259,-20.085 -43.294,-19.99 -43.294,-19.99L-51.485,-22.844L-51.355,-23.846C-55.752,-24.382 -60.15,-26.141 -63.265,-29.06C-64.387,-29.329 -65.526,-29.702 -66.677,-30.188L-71.904,-20.082C-75.578,-12.979 -75.644,-6.821 -74.618,-2.213C-75.989,-2.273 -77.382,-2.303 -78.798,-2.303C-87.45,-2.303 -93.921,-1.126 -94.191,-1.077L-112.669,2.335C-109.162,6.584 -109.006,13.848 -115.501,16.827C-118.75,18.316 -122.352,19.278 -126.069,19.96L-108.57,27.287C-120.263,28.492 -126.07,31.984 -127.288,32.799L-175.198,64.891L-119.158,51.297C-116.604,50.677 -113.672,50.363 -110.444,50.363C-106.054,50.363 -101.121,50.939 -95.779,52.074C-82.932,55.029 -74.884,59.043 -69.956,62.477L-154.767,83.864L-91.829,82.536L-65.122,88.205C-64.445,89.888 -63.422,92.195 -61.492,94.816C-55.726,102.644 -49.174,103.813 -45.781,103.813C-41.597,103.813 -37.689,102.17 -34.691,99.171C-29.458,98.598 -25.441,95.84 -22.868,92.209C-22.238,92.424 -21.584,92.601 -20.904,92.736C-19.41,93.033 -17.946,93.183 -16.552,93.183C-11.697,93.183 -7.358,91.331 -4.333,87.969C0.649,82.432 0.151,75.049 0,73.625" style="fill:rgb(35,31,32);fill-rule:nonzero;"/>
            </g>
            <g transform="matrix(1,0,0,1,228.0267,77.863)">
                <path d="M0,68.171C-2.274,68.171 -5.064,67.401 -8.785,65.747L-48.507,48.093L-9.615,46.326L-4.467,0L9.862,49.881C10.264,51.28 11.44,56.234 9.696,61.268L7.306,68.171L0,68.171Z" style="fill:rgb(35,31,32);fill-rule:nonzero;"/>
            </g>
            <g transform="matrix(1,0,0,1,215.763,107.1016)">
                <path d="M0,35.033C-4.593,32.469 -7.529,29.457 -8.726,26.079L-18.976,-2.851L3.377,11.954L20.722,-1.905L18.027,22.654C17.359,28.73 13.526,32.987 10.161,34.944L5.106,37.884L0,35.033Z" style="fill:rgb(35,31,32);fill-rule:nonzero;"/>
            </g>
            <g transform="matrix(1,0,0,1,216.7845,87.2879)">
                <path d="M0,37.167L-8.703,-17.476L24.883,41.159L21.246,46.471C17.806,51.494 12.479,53.459 8.642,53.623L-15.193,54.643L0,37.167Z" style="fill:rgb(35,31,32);fill-rule:nonzero;"/>
            </g>
            <g transform="matrix(1,0,0,1,211.9402,53.2582)">
                <path d="M0,77.644C-0.548,77.644 -0.857,77.616 -0.857,77.616L-10.903,76.71L-10.434,67.49L-41.304,0L4.127,53.732L23.137,45.621L13.45,68.895C11.238,74.21 5.958,77.644 0,77.644" style="fill:rgb(35,31,32);fill-rule:nonzero;"/>
            </g>
            <g transform="matrix(1,0,0,1,220.2527,86.8972)">
                <path d="M0,41.544C-5.406,41.544 -9.362,38.481 -11.262,35.615L-25.203,14.579L-8.125,18.275L-5.368,0L17.478,33.031L8.677,38.797C5.895,40.62 2.976,41.544 0,41.544" style="fill:rgb(35,31,32);fill-rule:nonzero;"/>
            </g>
            <g transform="matrix(1,0,0,1,220.2303,108.3851)">
                <path d="M0,27.168L-51.79,24.658L-5.948,8.209C-4.694,2.814 -0.139,0.247 3.828,0.153L10.35,0L18.343,16.059L13.185,21.276C7.928,26.593 2.388,27.168 0.25,27.168L0,27.168Z" style="fill:rgb(35,31,32);fill-rule:nonzero;"/>
            </g>
            <g transform="matrix(1,0,0,1,208.305,105.8713)">
                <path d="M0,29.484C-1.184,28.515 -4.08,25.673 -5.424,20.236L-9.356,4.345L6.073,7.611L21.826,-3.034L20.308,18.031C19.908,23.575 16.013,30.194 8.406,31.63L3.703,32.518L0,29.484Z" style="fill:rgb(35,31,32);fill-rule:nonzero;"/>
            </g>
            <g transform="matrix(1,0,0,1,232.2977,312.7087)">
                <path d="M0,-83.392C-2.159,-86.762 -4.625,-90.063 -7.329,-93.203L-22.508,-110.823L-25.292,-87.734C-25.48,-86.176 -25.665,-84.617 -25.832,-83.057L-37.898,-79.206L-30.65,-67.948C-26.686,-61.789 -25.294,-55.62 -26.398,-49.086L-26.903,-46.094C-27.189,-45.322 -27.471,-44.567 -27.753,-43.825L-27.839,-43.59C-28.125,-42.775 -28.414,-42.041 -28.696,-41.409L-28.809,-41.148C-29.25,-40.08 -29.659,-39.163 -30.058,-38.348C-33.595,-31.116 -39.221,-24.682 -47.762,-18.103C-57.121,-10.892 -67.53,-6.305 -78.702,-4.47C-85.103,-3.418 -90.255,-2.929 -94.918,-2.929C-97.72,-2.929 -100.322,-3.102 -102.875,-3.456C-106.105,-3.905 -108.86,-4.418 -111.281,-5.024C-113.447,-5.778 -114.904,-6.47 -115.861,-7.014C-115.122,-7.758 -114.184,-8.548 -113.362,-9.082L-96.512,-19.694C-97.549,-21.245 -98.068,-23.113 -98.065,-24.974C-100.712,-25.482 -103.353,-26.028 -105.982,-26.642C-107.918,-27.095 -109.685,-27.939 -111.084,-29.123L-120.158,-27.94C-130.182,-26.632 -137.03,-23.259 -141.095,-17.627C-144.22,-13.294 -145.306,-8.066 -144.23,-2.505L-143.955,-1.079L-143.854,-0.881C-143.306,1.155 -142.559,2.873 -141.943,4.087C-141.369,5.317 -140.032,8.017 -137.454,9.95C-131.937,15.957 -124.831,20.379 -116.296,23.111C-110.5,24.965 -101.688,27.431 -92.14,27.431C-88.961,27.431 -85.805,27.162 -82.759,26.631C-80.047,26.158 -77.251,25.823 -74.291,25.467C-69.715,24.92 -64.983,24.352 -60.166,23.214C-50.516,20.934 -40.823,16.723 -29.66,9.963C-14.427,0.736 -3.083,-11.07 4.056,-25.127C13.684,-44.083 12.281,-64.232 0,-83.392" style="fill:rgb(35,31,32);fill-rule:nonzero;"/>
            </g>
            <g transform="matrix(1,0,0,1,223.658,160.6539)">
                <path d="M0,74.198C-9.164,59.9 -22.095,50.086 -37.299,42.957C-47.794,38.035 -58.377,33.262 -68.631,27.87C-81.327,21.195 -93.058,13.134 -102.758,2.302C-111.747,-7.735 -117.145,-18.899 -116.134,-32.719C-115.156,-46.081 -109.19,-56.491 -98.152,-63.951C-85.603,-72.432 -71.595,-72.761 -57.264,-70.865C-54.367,-70.482 -51.506,-69.818 -48.347,-69.231C-52.259,-78.775 -60.37,-82.255 -69.199,-85.903C-62.477,-89.508 -55.469,-89.327 -48.434,-89.843C-41.381,-89.857 -37.895,-88.822 -37.895,-88.822C-42.773,-92.423 -48.972,-94.24 -54.837,-95.105C-57.961,-95.727 -61.168,-96.105 -64.313,-96.039C-71.401,-95.892 -78.542,-95.552 -85.542,-94.502C-96.924,-92.794 -107.656,-88.731 -116.138,-80.843C-133.546,-64.654 -137.22,-43.96 -133.214,-21.601C-130.165,-4.575 -120.372,8.761 -106.992,19.233C-88.604,33.624 -67.334,43.077 -46.404,52.982C-41.198,55.445 -36.13,58.01 -31.47,61.136L-31.47,61.135C-31.47,61.135 -3.03,77.365 -7.641,104.677C-7.315,104.552 -6.992,104.441 -6.666,104.309C-7.729,107.012 -8.623,109.511 -9.521,111.872C-9.891,112.926 -10.279,113.915 -10.686,114.827C-11.164,115.982 -11.66,117.11 -12.2,118.215C-16.963,127.956 -24.334,135.513 -32.859,142.081C-43.438,150.23 -55.333,155.563 -68.399,157.711C-77.349,159.18 -86.409,160.047 -95.646,158.762C-99.047,158.29 -102.37,157.699 -105.577,156.872C-131.882,147.951 -110.19,134.29 -110.19,134.29C-124.878,136.206 -126.433,142.853 -125.514,147.602L-125.515,147.602C-125.515,147.605 -125.514,147.607 -125.513,147.61C-125.187,149.29 -124.553,150.73 -124.081,151.639C-123.151,153.647 -122.517,153.88 -122.517,153.88C-122.517,153.88 -122.494,153.808 -122.455,153.689C-117.913,159.192 -111.853,163.049 -104.53,165.392C-95.272,168.354 -85.782,170.303 -75.882,168.577C-68.578,167.303 -61.075,166.98 -53.885,165.282C-44.051,162.96 -35.004,158.491 -26.336,153.241C-13.619,145.538 -3.191,135.549 3.547,122.281C11.961,105.715 9.852,89.569 0,74.198" style="fill:rgb(237,28,36);fill-rule:nonzero;"/>
            </g>
            <g transform="matrix(1,0,0,1,137.0394,296.9061)">
                <path d="M0,19.394C-9.074,18.828 -16.842,16.958 -23.874,12.828C-28.382,10.179 -28.13,5.661 -23.318,3.635C-19.921,2.206 -16.158,1.162 -12.497,0.93C2.214,0 16.271,3.322 30.01,8.275C32.707,9.248 35.425,10.16 38.398,11.985C34.668,13.389 30.86,14.616 27.228,16.239C20.922,19.055 16.111,14.562 10.659,13.183C5.349,11.841 0.05,10.391 -5.334,9.45C-6.532,9.241 -9.159,10.913 -9.199,11.805C-9.264,13.259 -8.065,15.2 -6.81,16.179C-5.122,17.497 -2.874,18.095 0,19.394" style="fill:rgb(251,176,64);fill-rule:nonzero;"/>
            </g>
            <g transform="matrix(1,0,0,1,137.0394,296.9061)">
                <path d="M0,19.394C-9.074,18.828 -16.842,16.958 -23.874,12.828C-28.382,10.179 -28.13,5.661 -23.318,3.635C-19.921,2.206 -16.158,1.162 -12.497,0.93C2.214,0 16.271,3.322 30.01,8.275C32.707,9.248 35.425,10.16 38.398,11.985C34.668,13.389 30.86,14.616 27.228,16.239C20.922,19.055 16.111,14.562 10.659,13.183C5.349,11.841 0.05,10.391 -5.334,9.45C-6.532,9.241 -9.159,10.913 -9.199,11.805C-9.264,13.259 -8.065,15.2 -6.81,16.179C-5.122,17.497 -2.874,18.095 0,19.394" style="fill:rgb(251,176,64);fill-rule:nonzero;"/>
            </g>
            <g transform="matrix(1,0,0,1,230.6175,196.512)">
                <path d="M0,4C-0.329,3.674 -0.772,3.348 -1.361,3.012C-5.27,0.782 -8.663,-2.335 -12.503,-4.705C-16.939,-7.442 -21.622,-9.779 -26.577,-12.499C-27.346,-2.325 -33.968,1.777 -41.936,4.177C-35.899,7.923 -30.21,11.595 -24.36,14.991C-23.102,15.721 -21.483,16.365 -20.013,16.47L-20.012,16.473C-20.007,16.473 -19.986,16.473 -19.969,16.472C-19.56,16.499 -19.16,16.49 -18.787,16.421C-18.669,16.399 -18.552,16.372 -18.435,16.35C-14.435,15.944 -3.944,14.335 0,8.731C0,8.731 2.179,5.474 0,4" style="fill:rgb(174,115,27);fill-rule:nonzero;"/>
            </g>
            <g transform="matrix(1,0,0,1,198.5291,187.982)">
                <path d="M0,-6.803C-7.298,-10.106 -14.484,-13.655 -21.943,-17.213C-24.422,-12.956 -27.268,-9.294 -32.091,-7.945C-36.431,-6.73 -40.837,-5.75 -45.213,-4.666C-45.313,-4.353 -45.412,-4.04 -45.511,-3.727C-37.637,0.068 -29.454,3.346 -21.983,7.815C-18.077,10.153 -14.587,10.41 -11.174,9.586L-11.175,9.589C-11.175,9.589 -11.11,9.574 -10.998,9.547C-10.979,9.542 -10.96,9.537 -10.942,9.532C-9.244,9.105 1.507,6.072 2.558,-2.461L2.557,-2.461C3.046,-4.388 2.33,-5.748 0,-6.803" style="fill:rgb(251,176,64);fill-rule:nonzero;"/>
            </g>
            <g transform="matrix(1,0,0,1,152.1497,180.2024)">
                <path d="M0,-26.559C-9.376,-20.026 -20.071,-21.246 -31.756,-23.544C-30.702,-21.962 -30.247,-20.857 -29.445,-20.144C-23.192,-14.583 -16.892,-9.075 -10.568,-3.595C-7.097,-0.587 -3.468,0 0.304,-0.305C0.308,-0.258 0.311,-0.23 0.311,-0.23C0.311,-0.23 13.2,-1.154 18.892,-6.361C19.002,-6.454 19.11,-6.553 19.214,-6.665C20.038,-7.484 20.689,-8.401 21.09,-9.433L21.404,-10.817C14.121,-16.174 7.077,-21.354 0,-26.559" style="fill:rgb(251,176,64);fill-rule:nonzero;"/>
            </g>
            <g transform="matrix(1,0,0,1,142.3392,151.0777)">
                <path d="M0,-17.406C-10.457,-15.162 -21.591,-14.579 -31.54,-23.419C-32.1,-16.433 -30.869,-10.739 -28.415,-5.324C-27.404,-3.093 -26.231,0.198 -24.445,0.739C-24.331,0.773 -24.216,0.808 -24.101,0.843C-20.824,2.257 -10.393,6.013 2.169,3.613C2.169,3.613 6.021,3.131 7.687,0.002C5.211,-5.604 2.811,-11.041 0,-17.406" style="fill:rgb(174,115,27);fill-rule:nonzero;"/>
            </g>
            <g transform="matrix(1,0,0,1,146.827,122.4722)">
                <path d="M0,-6.571C-8.802,-8.644 -18.187,-10.341 -24.62,-18.307C-29.718,-13.523 -32.412,-7.849 -34.468,-1.899C-34.869,-0.738 -34.051,1.686 -33.03,2.347C-33.03,2.347 -28.828,8.548 -14.718,10.856C-14.718,10.856 -8.145,11.736 -4.042,6.689C-3.725,6.388 -3.469,6.064 -3.323,5.711C-1.757,1.91 -1.096,-2.264 0,-6.571" style="fill:rgb(251,176,64);fill-rule:nonzero;"/>
            </g>
            <g transform="matrix(1,0,0,1,146.1038,114.0563)">
                <path d="M0,-16.951C-2.745,-16.951 -5.329,-16.744 -7.727,-16.349C-9.625,-15.996 -15.427,-14.599 -19.837,-10.276C-19.769,-10.181 -19.706,-10.079 -19.635,-9.987C-18.574,-8.005 -16.022,-5.281 -9.932,-2.789C-3.113,0 0.979,-0.488 3.16,-1.309C3.179,-1.317 3.2,-1.323 3.219,-1.33C4.567,-1.849 5.165,-2.482 5.198,-2.519C5.403,-2.65 5.609,-2.782 5.814,-2.913C6.352,-3.218 6.929,-3.58 7.562,-4.027C9.018,-4.951 10.504,-5.888 12.021,-6.844C19.508,-11 23.53,-10.309 24.028,-13.096C17.138,-15.085 8.429,-16.951 0,-16.951" style="fill:rgb(251,176,64);fill-rule:nonzero;"/>
            </g>
            <g transform="matrix(1,0,0,1,151.0843,343.8406)">
                <path d="M0,-205.04C5.328,-204.878 10.663,-204.99 15.995,-204.99C21.411,-204.992 26.829,-204.891 32.24,-205.04C34.516,-205.103 35.082,-204.274 35.029,-202.143C34.981,-200.189 34.795,-199.128 32.361,-199.158C21.532,-199.287 10.699,-199.275 -0.13,-199.165C-2.426,-199.142 -2.652,-200.159 -2.669,-202.021C-2.688,-203.997 -2.421,-205.113 0,-205.04M34.903,-111.891C32.01,-110.945 28.958,-110.371 25.932,-109.981C22.917,-109.593 22.762,-109.942 23.355,-113.681C30.463,-112.269 35.871,-115.932 41.344,-119.688C41.382,-116.271 39.013,-113.237 34.903,-111.891M15.982,-136.507C10.568,-136.509 5.15,-136.613 -0.26,-136.463C-2.729,-136.394 -2.646,-137.776 -2.642,-139.475C-2.639,-141.092 -2.684,-142.346 -0.374,-142.327C10.621,-142.233 21.618,-142.218 32.613,-142.339C35.109,-142.366 34.938,-141.016 34.998,-139.338C35.063,-137.479 34.785,-136.396 32.475,-136.459C26.981,-136.608 21.48,-136.507 15.982,-136.507M-0.513,-152.813C10.643,-152.733 21.8,-152.743 32.957,-152.806C35.722,-152.822 34.792,-150.899 34.96,-149.506C35.162,-147.847 34.822,-146.882 32.746,-146.931C27.254,-147.061 21.757,-146.975 16.262,-146.975C10.684,-146.977 5.103,-147.061 -0.472,-146.934C-2.63,-146.885 -2.734,-148.03 -2.621,-149.589C-2.514,-151.05 -3.202,-152.833 -0.513,-152.813M1.995,-163.15C11.655,-163.151 21.315,-163.15 30.976,-163.15C35.098,-163.15 35.1,-163.15 34.957,-159.107C34.943,-158.703 34.879,-158.3 34.813,-157.648L-2.207,-157.648C-2.368,-157.942 -2.502,-158.078 -2.514,-158.223C-2.9,-163.148 -2.898,-163.15 1.995,-163.15M32.825,-167.857C21.751,-167.943 10.677,-167.941 -0.396,-167.852C-2.731,-167.832 -2.657,-169.145 -2.632,-170.741C-2.609,-172.271 -2.864,-173.719 -0.458,-173.663C5.118,-173.535 10.698,-173.623 16.277,-173.623C21.772,-173.622 27.27,-173.538 32.762,-173.665C34.86,-173.713 35.099,-172.686 34.976,-171.058C34.864,-169.57 35.495,-167.836 32.825,-167.857M-0.172,-184.134C10.756,-184.011 21.687,-184.014 32.615,-184.132C34.85,-184.157 35.022,-183.148 34.993,-181.422C34.963,-179.662 35.14,-178.166 32.516,-178.244C27.015,-178.406 21.505,-178.293 15.999,-178.293L15.999,-178.305C10.659,-178.305 5.316,-178.421 -0.019,-178.252C-2.463,-178.175 -2.694,-179.311 -2.669,-181.272C-2.646,-183.095 -2.525,-184.161 -0.172,-184.134M34.973,-191.501C35.032,-189.915 35.113,-188.617 32.743,-188.64C21.734,-188.748 10.724,-188.751 -0.285,-188.64C-2.779,-188.614 -2.631,-189.982 -2.642,-191.659C-2.653,-193.37 -2.722,-194.724 -0.251,-194.652C5.249,-194.494 10.757,-194.603 16.262,-194.603C21.767,-194.599 27.274,-194.495 32.775,-194.643C35.437,-194.715 34.916,-193.023 34.973,-191.501M-16.427,-177.19C-19.345,-177.292 -22.27,-177.211 -25.192,-177.209C-28.983,-177.207 -29.202,-176.9 -28.131,-172.697C-24.386,-172.697 -20.561,-172.582 -16.746,-172.74C-14.487,-172.832 -14.335,-171.638 -14.413,-169.947C-14.485,-168.379 -14.066,-166.658 -16.659,-166.789C-19.324,-166.923 -22.007,-166.927 -24.669,-166.772C-26.279,-166.679 -28.7,-167.926 -28.659,-164.431C-28.621,-161.09 -26.313,-162.334 -24.795,-162.246C-22.049,-162.085 -19.284,-162.106 -16.534,-162.222C-14.329,-162.314 -14.381,-160.949 -14.424,-159.448C-14.466,-157.98 -14.048,-156.332 -16.513,-156.413C-19.849,-156.522 -23.191,-156.395 -26.53,-156.454C-27.977,-156.479 -28.767,-156.054 -28.597,-154.469C-28.51,-153.667 -28.512,-152.856 -28.459,-151.758C-25.192,-151.758 -22.121,-151.759 -19.05,-151.758C-13.963,-151.756 -13.86,-151.636 -14.588,-146.561C-14.598,-146.491 -14.678,-146.431 -14.98,-146.016L-28.252,-146.016C-29.096,-141.318 -28.993,-141.187 -24.848,-141.191C-21.456,-141.195 -18.064,-141.192 -14.601,-141.192C-14.523,-140.159 -14.442,-139.508 -14.43,-138.856C-14.367,-135.565 -14.373,-135.563 -17.673,-135.561C-20.913,-135.558 -24.151,-135.561 -28.082,-135.561C-22.81,-122.645 -14.144,-114.928 -0.369,-112.966C-0.369,-110.982 -0.273,-108.815 -0.435,-106.668C-0.477,-106.115 -1.34,-105.167 -1.802,-105.181C-3.708,-105.238 -4.061,-104.275 -3.946,-102.69C-3.868,-101.61 -3.933,-100.52 -3.933,-99.435C-3.93,-93.305 -3.96,-93.175 1.971,-91.757C4.191,-91.227 4.603,-90.19 4.595,-88.144C4.527,-68.942 4.555,-49.741 4.557,-30.54C4.557,-26.503 4.55,-25.819 1.714,-25.505C1.126,-25.441 0.427,-25.391 -0.429,-25.332C-3.352,-25.129 -6.259,-24.854 -9.149,-24.502C-23.081,-22.551 -45.217,-16.882 -43.093,-0.598C-40.015,23.003 13.458,21.977 13.458,21.977C13.458,21.977 66.018,21.984 71.149,-0.94C71.149,-0.94 75.938,-20.436 28.948,-25.219C28.513,-25.264 28.077,-25.3 27.64,-25.332C26.858,-25.389 26.249,-25.436 25.76,-25.505C23.92,-25.767 23.91,-26.363 23.91,-29.175C23.908,-48.293 23.909,-67.412 23.908,-86.53C23.908,-90.839 23.908,-90.839 28.143,-92.128C32.037,-93.314 32.177,-93.498 32.18,-97.476C32.18,-99.146 32.082,-100.823 32.204,-102.484C32.344,-104.389 31.855,-105.561 29.55,-105.277C32,-106.177 34.393,-106.814 36.688,-107.704C42.241,-109.857 45.746,-113.834 46.699,-119.782C46.874,-120.873 46.319,-122.08 46.101,-123.233C45.831,-123.765 46.183,-124.335 46.621,-124.827C51.09,-129.836 53.28,-135.667 53.261,-142.403C53.212,-159.851 53.378,-177.301 53.154,-194.747C53.093,-199.535 52.189,-204.356 51.208,-209.066C46.459,-223.834 31.313,-227.358 21.527,-228.043C16.296,-228.02 11.066,-227.996 5.837,-227.902C-0.447,-227.79 -6.372,-226.177 -12.019,-223.327C-19.208,-219.38 -22.407,-214.119 -23.423,-212.102C-23.521,-211.839 -23.649,-211.564 -23.809,-211.264C-24.969,-209.085 -25.858,-206.763 -27.125,-203.909C-23.156,-203.909 -19.766,-203.847 -16.379,-203.931C-14.058,-203.988 -14.434,-202.407 -14.435,-201.03C-14.436,-199.655 -14.056,-198.07 -16.39,-198.156C-19.141,-198.258 -21.899,-198.176 -24.654,-198.176C-28.458,-198.176 -28.868,-197.646 -27.971,-193.527C-24.467,-193.527 -20.889,-193.395 -17.326,-193.574C-14.979,-193.692 -14.359,-192.856 -14.344,-190.581C-14.328,-188.248 -15.067,-187.388 -17.348,-187.699C-18.249,-187.822 -19.181,-187.72 -20.1,-187.721L-28.415,-187.721C-28.81,-183.116 -28.81,-183.116 -24.701,-183.114C-21.946,-183.112 -19.188,-183.037 -16.437,-183.133C-13.914,-183.221 -14.476,-181.451 -14.436,-180.045C-14.396,-178.637 -14.129,-177.11 -16.427,-177.19" style="fill:rgb(230,231,232);fill-rule:nonzero;"/>
            </g>
            <g transform="matrix(1,0,0,1,211.032,177.9928)">
                <path d="M0,21.843C-0.19,13.713 -2.604,5.953 -2.309,-2.271C-2.218,-4.809 -0.819,-6.99 1.147,-8.465C-0.67,-11.583 -2.48,-13.633 -2.48,-15.34C-2.48,-20.479 -1.455,-27.669 -2.48,-33.309C-3.507,-38.949 -7.708,-37.88 -7.708,-37.88C-7.708,-37.88 0.956,37.82 -36.593,52.167C-36.593,52.167 -18.899,60.792 -2.48,29.392C-1.47,27.459 -0.587,25.616 0.187,23.855C0.08,23.198 0.016,22.526 0,21.843" style="fill:rgb(147,149,152);fill-rule:nonzero;"/>
            </g>
            <g transform="matrix(1,0,0,1,191.0174,358.6646)">
                <path d="M0,-130.55C0,-130.55 -2.133,-124.533 -19.064,-120.429C-19.064,-120.429 -22.656,-118.87 -15.986,-117.854C-9.316,-116.837 -20.483,-115.298 -20.03,-106.576C-19.578,-97.854 -19.064,-71.175 -19.064,-71.175L-18.551,-37.825C-18.551,-37.825 -19.235,-33.208 -5.725,-32.695C9.284,-32.125 23.52,-29.104 24.033,-19.868C24.546,-10.633 22.981,-1.515 0.933,4.187C-21.117,9.889 29.677,0.654 32.242,-3.963C34.807,-8.581 35.833,-10.633 35.833,-15.764C35.833,-20.895 35.32,-20.895 32.242,-27.051C29.164,-33.208 30.703,-31.669 23.007,-36.286C15.311,-40.904 16.337,-40.391 10.693,-42.444C5.049,-44.495 -0.594,-46.034 -2.646,-46.548C-4.699,-47.061 -7.264,-47.061 -8.803,-49.112C-10.342,-51.165 -10.342,-53.217 -10.342,-56.296L-10.342,-65.018C-10.342,-69.636 -9.316,-82.462 -9.316,-82.462C-9.316,-82.462 -7.435,-101.958 -4.357,-106.576C-1.278,-111.194 -3.844,-115.279 -0.252,-117.854C3.339,-120.429 2.826,-117.351 6.417,-121.968C10.009,-126.585 11.548,-125.426 11.548,-129.597C11.548,-133.769 12.512,-134.447 11.548,-137.36C10.585,-140.273 12.7,-140.107 10.585,-140.273C8.47,-140.439 4.126,-139.412 4.126,-139.412L0,-130.55Z" style="fill:rgb(147,149,152);fill-rule:nonzero;"/>
            </g>
            <g transform="matrix(1,0,0,1,210.452,342.3242)">
                <path d="M0,-10.817C0,-10.817 5.453,15.114 -36.105,14.6C-36.105,14.6 -2.243,20.245 6.479,-5.409C15.202,-31.062 0,-10.817 0,-10.817" style="fill:rgb(147,149,152);fill-rule:nonzero;"/>
            </g>
            <g transform="matrix(1,0,0,1,199.3162,347.6205)">
                <path d="M0,-20.171C0,-20.171 13.89,-18.645 10.942,-9.074C7.995,0.496 15.691,-7.199 15.691,-9.893C15.691,-12.587 18,-12.587 15.691,-14.511C13.382,-16.435 15.373,-16.128 12.646,-18.013C9.919,-19.898 10.646,-19.675 8.359,-20.171C6.071,-20.667 0,-20.171 0,-20.171" style="fill:rgb(147,149,152);fill-rule:nonzero;"/>
            </g>
            <g transform="matrix(1,0,0,1,200.7103,126.931)">
                <path d="M0,65.831C0,65.831 14.938,-18.731 -56.634,-11.133C-56.634,-11.133 -43.813,-14.311 -35.601,-14.311C-27.389,-14.311 -27.389,-18.158 -19.693,-14.311C-11.998,-10.462 -13.291,-12.44 -8.282,-6.614C-3.272,-0.789 -1.223,-3.536 3.395,4.93C8.012,13.395 8.07,15.039 8.169,20.368C8.268,25.697 7.556,29.252 8.169,37.101C8.782,44.949 8.345,47.177 8.179,53.759C8.012,60.34 9.728,68.076 8.485,69.98C7.243,71.884 5.554,84.562 5.554,84.562L0,65.831Z" style="fill:rgb(147,149,152);fill-rule:nonzero;"/>
            </g>
            <g transform="matrix(1,0,0,1,192.4285,153.4957)">
                <path d="M0,60.862C0,60.862 10.172,50.156 6.991,-1.303C6.991,-1.303 13.992,-1.284 15.097,1.706C16.202,4.695 15.097,6.167 15.097,12.104C15.097,18.042 18.85,17.876 16.46,27.194C14.071,36.512 16.113,44.11 14.071,48.006C12.028,51.901 11.395,53.83 8.628,57.997C5.862,62.165 0,60.862 0,60.862" style="fill:rgb(147,149,152);fill-rule:nonzero;"/>
            </g>
            <g transform="matrix(1,0,0,1,135.1307,145.8841)">
                <path d="M0,-22.813C0,-22.813 -8.84,-12.827 -6.788,-9.748C-4.736,-6.67 -2.022,-7.266 0.591,-5.853C1.344,-5.445 -1.145,-1.2 -1.145,-1.2C-5.762,-1.026 -6.788,-0.349 -10.38,-1.2C-13.971,-2.052 -16.023,0 -14.997,-2.052C-13.971,-4.105 -15.51,-7.696 -12.945,-10.261C-10.38,-12.827 -10.634,-16.623 -6.344,-18.47C-2.054,-20.317 0,-22.813 0,-22.813" style="fill:rgb(147,149,152);fill-rule:nonzero;"/>
            </g>
            <g transform="matrix(1,0,0,1,135.7415,229.1452)">
                <path d="M0,-83.576C0,-83.576 -1.836,-82.441 0,-78.576L0.122,-75.223L-0.294,-73.064C-0.294,-73.064 -1.167,-71.343 -0.13,-68.347C0.907,-65.35 -0.347,-63.166 -0.347,-63.166C-0.347,-63.166 -1.859,-61.37 -0.268,-57.265C1.323,-53.161 -0.358,-52.648 -0.358,-52.648C-0.358,-52.648 -2.416,-50.56 -0.29,-45.704C1.836,-40.847 -0.418,-42.952 -0.418,-42.952C-0.418,-42.952 -2.465,-40.078 -0.315,-35.717C1.836,-31.356 -0.337,-32.234 -0.337,-32.234C-0.337,-32.234 -2.157,-28.994 -0.332,-24.702L-5.347,-21.761C-5.347,-21.761 -7.205,-4.178 14.974,1.729C16.901,0.693 8.289,3.276 5.342,1.729C0.468,-0.828 -6.972,-0.828 -10.307,-5.959C-13.642,-11.09 -16.72,-12.629 -17.233,-15.964C-17.746,-19.299 -18.002,-24.43 -17.489,-27.251C-16.977,-30.073 -17.661,-47.347 -18.173,-50.681C-18.687,-54.016 -18.173,-58.971 -18.173,-58.971L-17.661,-79.96C-17.661,-79.96 -16.378,-85.056 -16.378,-85.826C-16.378,-86.596 -8.511,-86.852 -7.485,-86.852C-6.458,-86.852 0,-83.576 0,-83.576" style="fill:rgb(147,149,152);fill-rule:nonzero;"/>
            </g>
            <g transform="matrix(1,0,0,1,149.3782,207.5766)">
                <path d="M0,-65.836C0,-65.836 6.779,-62.975 1.337,-54.766C1.337,-54.766 5.76,-50.661 1.726,-43.992C1.726,-43.992 6.157,-40.144 2.309,-33.217C2.309,-33.217 5.9,-29.113 2.822,-23.469C2.822,-23.469 6.413,-17.74 2.822,-12.096C2.822,-12.096 5.387,-6.485 2.822,-3.134C0.256,0.217 15.509,-2.348 17.888,-2.091C20.266,-1.835 25.061,-1.835 25.061,-1.835L27.962,-2.091C27.962,-2.091 35.401,-2.894 35.401,-3.134C35.401,-3.374 32.066,-7.166 34.888,-13.607C34.888,-13.607 31.04,-20.818 34.888,-24.923C34.888,-24.923 30.527,-29.797 34.375,-35.697C34.375,-35.697 30.527,-38.673 34.375,-44.924C34.375,-44.924 30.271,-52.713 34.632,-55.792C34.632,-55.792 30.784,-61.771 34.632,-65.836C34.632,-65.836 14.366,-65.619 10.004,-65.836C5.644,-66.053 0,-65.836 0,-65.836" style="fill:rgb(147,149,152);fill-rule:nonzero;"/>
            </g>
            <g transform="matrix(1,0,0,1,172.0316,332.5435)">
                <path d="M0,-39.924C0,-39.924 6.42,-4.18 -28.811,-4.008C-28.811,-4.008 -19.517,0 12.264,-6.621C12.264,-6.621 11.722,-8.626 7.617,-10.678C3.513,-12.731 3.171,-11.192 2.315,-16.835C1.46,-22.479 -0.079,-21.966 1.46,-27.61C3,-33.253 3.513,-35.305 3.513,-36.331C3.513,-37.358 0,-39.924 0,-39.924" style="fill:rgb(147,149,152);fill-rule:nonzero;"/>
            </g>
            <g transform="matrix(1,0,0,1,174.347,327.4066)">
                <path d="M0,0.376C0,0.376 12.451,-3.414 29.827,1.251C47.202,5.917 32.836,-1.266 27.192,-2.292C21.549,-3.318 19.326,-4.173 12.313,-4.857C5.302,-5.541 2.565,-5.37 2.565,-4.857C2.565,-4.344 0,0.376 0,0.376" style="fill:rgb(147,149,152);fill-rule:nonzero;"/>
            </g>
            <g transform="matrix(1,0,0,1,139.2347,372.5503)">
                <path d="M0,-52.801C0,-52.801 -30.389,-46.409 -22.18,-30.504C-13.971,-14.6 11.173,-5.443 54.183,-10.021C97.193,-14.6 65.383,-6.904 51.53,-4.852C37.678,-2.799 32.034,-0.747 19.721,-0.747C7.407,-0.747 0.737,1.305 -11.063,-4.852C-22.864,-11.008 -25.543,-8.443 -31.386,-16.652C-37.229,-24.861 -37.743,-25.887 -37.743,-31.018C-37.743,-36.149 -36.204,-42.813 -36.204,-42.813C-36.204,-42.813 -29.021,-50.001 -20.812,-51.54C-12.603,-53.079 -12.603,-54.106 -6.446,-54.106C-0.289,-54.106 0,-52.801 0,-52.801" style="fill:rgb(147,149,152);fill-rule:nonzero;"/>
            </g>
            <g transform="matrix(1,0,0,1,149.8699,320.0269)">
                <path d="M0,-89.551C0,-89.551 6.263,-87.906 12.805,-89.551C12.805,-89.551 10.111,-86.964 11.266,-83.886C12.42,-80.808 8.188,-81.962 5.109,-80.038C2.031,-78.114 1.646,-73.625 6.263,-69.777C10.881,-65.929 10.111,-67.853 10.111,-60.927C10.111,-54 8.442,-13.468 8.442,-13.468C8.442,-13.468 9.319,-3.913 4.328,-1.956C-0.663,0 0.876,-20.395 1.646,-21.934C2.416,-23.473 3.057,-30.784 2.929,-33.863C2.8,-36.941 4.339,-48.1 4.339,-50.024C4.339,-51.947 -7.205,-63.876 -7.205,-68.494C-7.205,-73.112 -9.171,-73.881 -6.649,-78.114C-4.126,-82.347 -3.356,-83.116 -1.817,-84.271C-0.278,-85.425 0,-89.551 0,-89.551" style="fill:rgb(147,149,152);fill-rule:nonzero;"/>
            </g>
            <g transform="matrix(1,0,0,1,183.8592,155.1456)">
                <path d="M0,-5.948C-5.501,-5.8 -11.008,-5.904 -16.513,-5.908C-22.018,-5.908 -27.526,-5.799 -33.026,-5.957C-35.497,-6.029 -35.428,-4.675 -35.417,-2.964C-35.406,-1.287 -35.554,0.081 -33.06,0.055C-22.051,-0.056 -11.041,-0.052 -0.032,0.055C2.338,0.078 2.257,-1.22 2.198,-2.806C2.141,-4.328 2.662,-6.02 0,-5.948" style="fill:rgb(35,31,32);fill-rule:nonzero;"/>
            </g>
            <g transform="matrix(1,0,0,1,151.0657,159.7652)">
                <path d="M0,5.823C5.334,5.654 10.677,5.771 16.017,5.771L16.017,5.782C21.523,5.782 27.033,5.67 32.535,5.832C35.159,5.909 34.982,4.414 35.012,2.654C35.041,0.927 34.868,-0.081 32.633,-0.057C21.705,0.061 10.774,0.065 -0.153,-0.059C-2.507,-0.086 -2.627,0.98 -2.65,2.803C-2.675,4.764 -2.444,5.901 0,5.823" style="fill:rgb(35,31,32);fill-rule:nonzero;"/>
            </g>
            <g transform="matrix(1,0,0,1,148.8777,180.6897)">
                <path d="M0,5.503L37.019,5.503C37.085,4.851 37.149,4.448 37.164,4.044C37.307,0.001 37.304,0.001 33.182,0.001C23.522,0.001 13.862,0 4.202,0.001C-0.692,0.001 -0.694,0.003 -0.308,4.928C-0.296,5.073 -0.162,5.209 0,5.503" style="fill:rgb(35,31,32);fill-rule:nonzero;"/>
            </g>
            <g transform="matrix(1,0,0,1,183.8465,175.9546)">
                <path d="M0,-5.779C-5.492,-5.652 -10.99,-5.736 -16.485,-5.737C-22.064,-5.737 -27.645,-5.649 -33.22,-5.777C-35.626,-5.833 -35.372,-4.385 -35.395,-2.855C-35.419,-1.259 -35.493,0.054 -33.159,0.034C-22.085,-0.055 -11.011,-0.057 0.062,0.029C2.733,0.05 2.102,-1.684 2.213,-3.172C2.336,-4.8 2.098,-5.827 0,-5.779" style="fill:rgb(35,31,32);fill-rule:nonzero;"/>
            </g>
            <g transform="matrix(1,0,0,1,150.9539,138.7641)">
                <path d="M0,5.911C10.83,5.801 21.662,5.789 32.491,5.919C34.925,5.948 35.112,4.888 35.16,2.934C35.212,0.802 34.646,-0.026 32.37,0.036C26.959,0.186 21.541,0.084 16.125,0.087C10.793,0.087 5.458,0.198 0.13,0.036C-2.291,-0.037 -2.558,1.08 -2.539,3.056C-2.521,4.917 -2.295,5.934 0,5.911" style="fill:rgb(35,31,32);fill-rule:nonzero;"/>
            </g>
            <g transform="matrix(0.532937,0.846155,0.846155,-0.532937,175.941508,226.488029)">
                <path d="M6.81,-3.019C8.093,-0.251 9.234,2.638 9.975,5.59C11.027,9.785 9.722,13.406 6.81,15.195C7.071,8.561 7.289,2.034 2.306,-3.228C5.154,-5.722 5.531,-5.778 6.81,-3.019" style="fill:rgb(35,31,32);fill-rule:nonzero;"/>
            </g>
            <g transform="matrix(1,0,0,1,222.2332,138.7207)">
                <path d="M0,204.18C-5.131,227.104 -57.691,227.097 -57.691,227.097C-57.691,227.097 -111.164,228.123 -114.242,204.522C-116.366,188.238 -94.229,182.569 -80.298,180.618C-77.408,180.266 -74.501,179.991 -71.578,179.788C-70.722,179.729 -70.022,179.679 -69.435,179.615C-66.599,179.301 -66.592,178.617 -66.592,174.58C-66.594,155.379 -66.622,136.178 -66.554,116.976C-66.546,114.93 -66.958,113.893 -69.178,113.363C-75.109,111.945 -75.079,111.815 -75.082,105.685C-75.082,104.6 -75.017,103.51 -75.095,102.43C-75.209,100.845 -74.856,99.882 -72.951,99.939C-72.489,99.952 -71.625,99.005 -71.583,98.451C-71.422,96.305 -71.518,94.138 -71.518,92.154C-85.293,90.192 -93.959,82.475 -99.231,69.559C-95.3,69.559 -92.062,69.562 -88.822,69.559C-85.522,69.556 -85.516,69.555 -85.579,66.263C-85.591,65.612 -85.672,64.961 -85.75,63.928C-89.213,63.928 -92.605,63.925 -95.997,63.929C-100.142,63.933 -100.245,63.802 -99.401,59.104L-86.129,59.104C-85.827,58.689 -85.747,58.629 -85.737,58.559C-85.009,53.484 -85.112,53.364 -90.199,53.362C-93.27,53.361 -96.341,53.362 -99.608,53.362C-99.661,52.264 -99.659,51.452 -99.746,50.651C-99.916,49.066 -99.126,48.64 -97.679,48.666C-94.34,48.724 -90.998,48.598 -87.662,48.707C-85.197,48.787 -85.615,47.139 -85.573,45.672C-85.53,44.171 -85.478,42.805 -87.683,42.898C-90.433,43.014 -93.198,43.035 -95.944,42.874C-97.462,42.786 -99.77,44.03 -99.808,40.689C-99.849,37.194 -97.428,38.441 -95.818,38.347C-93.156,38.193 -90.473,38.197 -87.808,38.331C-85.215,38.462 -85.634,36.741 -85.562,35.173C-85.484,33.482 -85.636,32.287 -87.895,32.38C-91.709,32.537 -95.535,32.423 -99.28,32.423C-100.351,28.22 -100.132,27.912 -96.341,27.91C-93.419,27.909 -90.494,27.827 -87.576,27.93C-85.278,28.01 -85.545,26.483 -85.585,25.075C-85.625,23.669 -85.063,21.899 -87.585,21.987C-90.337,22.083 -93.095,22.008 -95.85,22.006C-99.959,22.004 -99.959,22.004 -99.563,17.399L-91.249,17.399C-90.33,17.4 -89.398,17.298 -88.497,17.421C-86.216,17.732 -85.477,16.872 -85.493,14.539C-85.508,12.263 -86.127,11.428 -88.475,11.546C-92.038,11.724 -95.616,11.593 -99.12,11.593C-100.017,7.474 -99.606,6.944 -95.803,6.944C-93.048,6.944 -90.29,6.862 -87.539,6.964C-85.205,7.05 -85.585,5.465 -85.584,4.09C-85.583,2.713 -85.207,1.132 -87.528,1.189C-90.915,1.273 -94.305,1.211 -98.274,1.211C-97.007,-1.643 -96.118,-3.965 -94.958,-6.144C-94.798,-6.445 -94.67,-6.719 -94.572,-6.982C-93.556,-8.999 -90.357,-14.26 -83.167,-18.207C-77.521,-21.057 -71.596,-22.67 -65.312,-22.782C-60.083,-22.876 -54.853,-22.9 -49.622,-22.923C-39.836,-22.238 -24.69,-18.715 -19.941,-3.946C-18.959,0.763 -18.056,5.585 -17.995,10.373C-17.771,27.819 -17.937,45.269 -17.888,62.717C-17.869,69.452 -20.059,75.284 -24.528,80.293C-24.966,80.784 -25.318,81.355 -25.048,81.887C-24.83,83.04 -24.275,84.247 -24.45,85.338C-25.403,91.285 -28.908,95.263 -34.461,97.416C-36.756,98.306 -39.149,98.943 -41.599,99.843C-39.293,99.559 -38.805,100.731 -38.945,102.636C-39.067,104.297 -38.969,105.974 -38.969,107.644C-38.972,111.621 -39.112,111.806 -43.006,112.992C-47.241,114.281 -47.241,114.281 -47.241,118.59C-47.24,137.708 -47.241,156.826 -47.239,175.945C-47.239,178.757 -47.229,179.353 -45.389,179.615C-44.9,179.684 -44.291,179.731 -43.509,179.788C-43.072,179.82 -42.636,179.856 -42.201,179.901C4.789,184.684 0,204.18 0,204.18M5.931,189.237C-1.063,179.32 -15.493,172.913 -36.978,170.171L-36.979,121.706C-31.011,119.119 -28.712,115.046 -28.708,107.65C-28.708,107.138 -28.715,106.625 -28.724,106.113C-20.793,102.359 -15.708,95.631 -14.316,86.958C-14.133,85.811 -14.123,84.741 -14.201,83.784C-9.813,77.617 -7.604,70.539 -7.626,62.688C-7.644,56.502 -7.635,50.315 -7.625,44.129C-7.607,33.034 -7.588,21.56 -7.735,10.242C-7.809,4.425 -8.889,-1.213 -9.896,-6.041L-10.006,-6.571L-10.173,-7.087C-15.128,-22.499 -28.884,-31.758 -48.905,-33.159L-49.286,-33.186L-49.667,-33.184C-54.551,-33.163 -60.086,-33.138 -65.496,-33.042C-73.098,-32.906 -80.6,-30.997 -87.791,-27.368L-88.105,-27.202C-97.8,-21.881 -102.267,-14.517 -103.737,-11.597L-103.991,-11.091L-104.092,-10.822C-105.059,-8.987 -105.817,-7.216 -106.617,-5.343C-106.94,-4.588 -107.279,-3.794 -107.653,-2.952L-114.055,11.472L-109.582,11.472C-109.536,11.79 -109.485,12.094 -109.432,12.382L-109.788,16.522C-110,19.003 -110.25,21.907 -109.186,24.751C-110.84,28.612 -109.857,32.471 -109.224,34.956L-109.118,35.372C-109.704,36.843 -110.094,38.64 -110.069,40.81C-110.048,42.571 -109.732,44.216 -109.165,45.695C-109.802,47.278 -110.212,49.297 -109.948,51.748C-109.916,52.051 -109.915,52.356 -109.903,52.709C-109.891,53.061 -109.877,53.437 -109.858,53.848L-109.654,58.154C-109.717,58.524 -109.78,58.907 -109.836,59.298L-114.503,59.298L-108.731,73.437C-103.656,85.87 -95.719,94.427 -85.06,98.997C-85.326,100.213 -85.443,101.599 -85.329,103.167C-85.309,103.444 -85.319,103.964 -85.328,104.469C-85.336,104.875 -85.343,105.284 -85.343,105.785C-85.341,109.916 -85.339,113.818 -82.492,117.54C-80.855,119.68 -78.903,120.937 -76.83,121.789C-76.868,135.57 -76.863,149.483 -76.856,162.986L-76.854,169.925C-78.427,170.075 -79.992,170.243 -81.538,170.432L-81.722,170.455C-123.658,176.328 -125.55,197.164 -124.417,205.849C-120.603,235.092 -73.125,237.366 -58.664,237.366C-58.119,237.366 -57.754,237.361 -57.592,237.359C-56.213,237.353 -42.827,237.225 -28.654,234.276C-6.082,229.58 6.928,220.208 10.014,206.422L10.014,206.421C10.428,204.561 11.556,197.212 5.931,189.237" style="fill:rgb(35,31,32);fill-rule:nonzero;"/>
            </g>
            <g transform="matrix(1,0,0,1,183.5594,201.5397)">
                <path d="M0,5.842C2.31,5.905 2.588,4.822 2.522,2.963C2.463,1.285 2.634,-0.065 0.138,-0.038C-10.857,0.083 -21.854,0.068 -32.849,-0.026C-35.159,-0.045 -35.114,1.209 -35.117,2.826C-35.122,4.525 -35.204,5.907 -32.735,5.838C-27.325,5.688 -21.907,5.792 -16.493,5.794C-10.995,5.794 -5.494,5.693 0,5.842" style="fill:rgb(35,31,32);fill-rule:nonzero;"/>
            </g>
            <g transform="matrix(1,0,0,1,150.6121,191.0596)">
                <path d="M0,5.847C5.575,5.72 11.156,5.805 16.734,5.806C22.229,5.806 27.727,5.72 33.218,5.85C35.294,5.899 35.634,4.934 35.433,3.275C35.264,1.882 36.194,-0.041 33.429,-0.025C22.272,0.038 11.115,0.048 -0.041,-0.032C-2.73,-0.052 -2.042,1.731 -2.148,3.192C-2.262,4.751 -2.158,5.896 0,5.847" style="fill:rgb(35,31,32);fill-rule:nonzero;"/>
            </g>
            <g transform="matrix(1,0,0,1,152.2357,325.3871)">
                <path d="M0,45.455C-3.679,45.455 -7.603,45.023 -11.999,44.133C-17.007,43.118 -21.093,39.347 -24.076,36.593C-29.315,31.758 -29.539,23.338 -24.573,17.825C-22.5,15.521 -19.913,13.891 -17.656,12.6L-11.022,20.155L-11.438,20.701C-13.656,23.596 -13.539,23.827 -13.225,24.446C-12.25,26.367 -10.775,27.589 -6.123,28.148C-5.05,28.276 -3.993,28.343 -2.98,28.343C2.738,28.343 7.591,26.274 11.853,22.019C14.67,19.205 15.893,16.048 15.589,12.369C15.502,11.317 15.236,8.11 17.465,5.509C19.713,2.885 23.019,2.647 24.105,2.569C26.737,2.381 29.426,1.965 32.272,1.524C33.572,1.322 34.89,1.119 36.235,0.931L42.898,0L42.034,6.672C40.492,18.574 34.854,27.972 23.754,37.142C16.982,42.735 9.212,45.455 0,45.455" style="fill:rgb(35,31,32);fill-rule:nonzero;"/>
            </g>
            <g transform="matrix(1,0,0,1,203.7835,327.5253)">
                <path d="M0,0.433L-0.66,-7.465C-2.01,-7.684 -3.433,-8.051 -4.939,-8.442C-7.783,-9.177 -10.726,-9.938 -13.961,-9.938C-17.473,-9.938 -20.597,-9.033 -23.511,-7.172C-24.078,-6.81 -24.859,-6.505 -25.71,-6.312C-33.335,-4.581 -41.022,-2.884 -48.456,-1.244L-55.124,0.23L-54.033,10.37L-53.178,10.371C-34.116,10.371 -17.514,8.067 -2.533,3.339C-2.128,2.91 -1.673,2.533 -1.19,2.192C-0.862,1.544 -0.465,0.954 0,0.433" style="fill:rgb(35,31,32);fill-rule:nonzero;"/>
            </g>
            <g transform="matrix(1,0,0,1,203.513,299.5353)">
                <path d="M0,28.757C-7.723,28.757 -12.228,24.579 -12.716,24.103L-16.978,19.944L-6.819,12.231C-2.352,8.837 2.052,5.491 6.461,2.153C8.372,0.704 10.317,0 12.407,0C13.872,0 15.361,0.353 16.959,1.076C19.535,2.241 22.37,3.095 25.373,3.998C26.712,4.403 28.059,4.808 29.403,5.246L37.558,7.903L31.36,13.831C25.836,19.115 18.791,23.318 10.415,26.323C6.933,27.932 3.416,28.757 0.001,28.757L0,28.757Z" style="fill:rgb(35,31,32);fill-rule:nonzero;"/>
            </g>
            <g transform="matrix(1,0,0,1,231.3265,320.9105)">
                <path d="M0,-11.251C-4.416,-12.689 -8.869,-13.77 -12.971,-15.626C-15.172,-16.622 -16.604,-16.384 -18.255,-15.133C-24.432,-10.454 -30.599,-5.765 -36.947,-0.944C-36.947,-0.944 -30.474,5.371 -19.45,0.245C-19.417,0.229 -19.389,0.215 -19.356,0.199C-11.836,-2.471 -5.2,-6.276 0,-11.251" style="fill:rgb(251,176,64);fill-rule:nonzero;"/>
            </g>
            <g transform="matrix(1,0,0,1,250.0775,302.4651)">
                <path d="M0,-14.704C0.407,-15.457 0.65,-15.999 0.772,-16.388C1.395,-17.83 1.925,-19.293 2.337,-20.755C2.088,-20.793 1.793,-20.933 1.594,-20.85C-4.517,-18.237 -10.778,-17.853 -17.263,-19.218C-18.054,-19.385 -19.457,-18.32 -20.054,-17.463C-23.838,-12.023 -27.476,-6.48 -31.25,-0.841C-30.083,0.419 -28.823,1.521 -27.372,1.943C-22.531,4.515 -13.824,6.229 -5.117,-6.633C-5.109,-6.643 -5.104,-6.652 -5.097,-6.663C-3.149,-9.098 -1.397,-11.84 0,-14.704" style="fill:rgb(251,176,64);fill-rule:nonzero;"/>
            </g>
            <g transform="matrix(1,0,0,1,259.8528,282.1397)">
                <path d="M0,-29.153C-6.995,-22.215 -15.065,-21.69 -23.135,-22.869C-24.377,-15.882 -25.538,-9.351 -26.742,-2.581C-26.742,-2.581 -26.378,-2.416 -25.739,-2.184C-24.943,-1.885 -24.166,-1.649 -23.408,-1.473C-23.367,-1.463 -23.326,-1.453 -23.285,-1.442C-23.196,-1.423 -23.105,-1.397 -23.017,-1.379C-19.395,-0.521 -13.699,0 -8.502,-3.033C-8.493,-3.026 -8.483,-3.02 -8.473,-3.014C-8.448,-3.043 -8.419,-3.07 -8.393,-3.098C-6.991,-3.931 -5.626,-5.016 -4.352,-6.436C-4.352,-6.436 -0.854,-15.425 -0.294,-22.859C-0.29,-22.923 -0.29,-22.972 -0.286,-23.033C-0.058,-25.011 0.059,-27.042 0,-29.153" style="fill:rgb(251,176,64);fill-rule:nonzero;"/>
            </g>
            <g transform="matrix(1,0,0,1,202.8406,381.2634)">
                <path d="M0,-52.975C-0.799,-52.775 -1.604,-52.585 -2.4,-52.371C-2.502,-52.336 -2.62,-52.296 -2.754,-52.25C-2.928,-52.18 -4.466,-51.272 -4.284,-51.52C-4.71,-51.153 -4.761,-51.16 -4.402,-51.576C-7.7,-47.886 -12.756,-46.411 -17.088,-49.393C-17.098,-49.319 -17.116,-49.255 -17.125,-49.181C-18.137,-40.387 -22.647,-33.076 -31.319,-26.168C-33.218,-24.655 -35.571,-23.435 -38.062,-22.144C-39.129,-21.59 -40.229,-21.02 -41.326,-20.409C-44.717,-19.132 -48.194,-18.467 -51.674,-18.429C-57.318,-19.122 -59.951,-19.476 -61.817,-20.217C-61.875,-20.242 -61.976,-20.284 -61.976,-20.284C-63.699,-21.005 -65.456,-22.371 -68.954,-25.093L-70.402,-26.217L-77.919,-19.479C-77.643,-19.03 -77.437,-18.617 -77.307,-18.247L-77.129,-17.764L-76.882,-17.343C-76.874,-17.329 -76.078,-15.966 -75.392,-13.919L-75.236,-13.458L-74.998,-13.035C-74.719,-12.539 -72.353,-8.514 -67.287,-5.021L-67.254,-4.89L-65.381,-3.804C-65.264,-3.738 -65.141,-3.671 -65.027,-3.613C-64.954,-3.572 -64.88,-3.53 -64.806,-3.489L-66.932,-1.893L-56.843,-0.467L-55.322,-0.038L-55.178,-0.232L-54.649,-0.157C-54.544,-0.142 -54.435,-0.13 -54.265,-0.111C-52.912,0.059 -51.512,0.146 -50.105,0.146C-43.347,0.146 -35.985,-1.833 -28.225,-5.737L-27.946,-5.877L-27.686,-6.05C-21.5,-10.171 -16.734,-14.109 -12.688,-18.442C-4.255,-27.468 0.064,-38.474 0.515,-52.087L0.549,-53.121C0.365,-53.074 0.187,-53.022 0,-52.975" style="fill:rgb(35,31,32);fill-rule:nonzero;"/>
            </g>
            <g transform="matrix(1,0,0,1,259.8245,237.3383)">
                <path d="M0,9.663C0.088,8.897 0.113,8.066 0.044,7.154C-0.087,5.397 -0.319,4.122 -0.627,3.193C-0.659,3.05 -0.68,2.901 -0.714,2.759C-2.032,-2.782 -3.827,-8.177 -7.522,-13.14C-13.041,-4.359 -21.186,-1.764 -31.058,-1.812C-30.41,-0.266 -29.908,0.838 -29.48,1.97C-28.067,5.706 -26.436,9.381 -25.348,13.211C-24.814,15.086 -24.416,16.34 -23.848,17.176C-23.848,17.176 -21.512,22.803 -4.067,16.645C-4.067,16.645 -1.575,15.254 -0.454,11.777C-0.217,11.399 -0.046,11.017 -0.022,10.627C-0.002,10.309 -0.007,9.984 0,9.663" style="fill:rgb(251,176,64);fill-rule:nonzero;"/>
            </g>
            <g transform="matrix(1,0,0,1,250.2718,213.0994)">
                <path d="M0,9.021C0.375,8.038 0.126,7.237 -0.617,6.383C-5.381,0.904 -10.336,-4.409 -15.715,-10.336C-20.633,-0.668 -29.252,1.227 -37.183,3.095C-33.595,7.349 -29.761,11.362 -26.598,15.847C-25.277,17.719 -23.932,18.86 -22.163,19.202C-22.164,19.203 -22.173,19.213 -22.173,19.213C-22.173,19.213 -22.137,19.216 -22.085,19.219C-21.376,19.345 -20.605,19.357 -19.731,19.218L-19.713,19.215C-17.945,19.139 -15.396,18.882 -12.638,18.124C-11.257,17.783 -10.257,17.474 -9.575,17.078C-6.577,15.844 -3.584,13.922 -1.282,10.926C-0.636,10.204 -0.216,9.583 -0.001,9.024L0,9.021Z" style="fill:rgb(174,115,27);fill-rule:nonzero;"/>
            </g>
            <g transform="matrix(1,0,0,1,190.8123,372.6283)">
                <path d="M0,-39.959C-1.312,-28.562 -7.612,-20.275 -16.095,-13.52C-19.384,-10.899 -23.399,-9.217 -27.114,-7.116C-31.845,-5.277 -36.224,-4.663 -39.945,-4.661C-46.143,-5.422 -49.185,-5.809 -51.747,-6.84C-51.837,-6.878 -51.906,-6.908 -51.928,-6.917L-51.929,-6.916C-54.564,-8.019 -56.76,-9.841 -61.517,-13.526C-61.037,-12.744 -60.686,-12.016 -60.444,-11.33C-60.444,-11.33 -59.396,-9.588 -58.5,-6.916L-58.499,-6.917C-58.499,-6.917 -56.141,-2.727 -50.785,0.379C-50.784,0.383 -50.783,0.387 -50.781,0.391C-50.687,0.445 -50.581,0.496 -50.484,0.55C-50.219,0.698 -49.952,0.846 -49.672,0.987C-49.507,1.071 -49.335,1.151 -49.165,1.233C-48.87,1.375 -48.573,1.516 -48.262,1.648C-48.111,1.713 -47.953,1.772 -47.798,1.835C-47.448,1.976 -47.097,2.115 -46.728,2.244C-46.634,2.276 -46.535,2.305 -46.44,2.336C-46.061,2.463 -45.685,2.594 -45.287,2.705C-45.284,2.701 -45.28,2.697 -45.277,2.693C-44.219,2.989 -43.089,3.224 -41.89,3.388C-41.895,3.391 -41.899,3.395 -41.904,3.397C-41.812,3.41 -41.715,3.419 -41.622,3.431C-41.613,3.432 -41.605,3.433 -41.596,3.434C-35.689,4.178 -28.081,3.133 -18.502,-1.685C-13.438,-5.06 -8.633,-8.786 -4.408,-13.309C3.372,-21.636 7.019,-31.652 7.416,-43.623C4.514,-42.63 0.481,-44.137 0,-39.959" style="fill:rgb(237,28,36);fill-rule:nonzero;"/>
            </g>
            <g transform="matrix(1,0,0,1,172.8577,357.6521)">
                <path d="M0,2.859C1.201,2 2.411,1.05 3.626,0C3.626,0 2.218,1.106 0,2.859" style="fill:rgb(0,174,239);fill-rule:nonzero;"/>
            </g>
            <g transform="matrix(1,0,0,1,223.409,132.1182)">
                <path d="M0,2.115C0,2.115 4.232,1.923 4.618,-1.54C4.618,-1.54 5.434,1.299 4.618,3.655C4.618,3.655 3.463,3.655 0,2.115" style="fill:rgb(255,242,199);fill-rule:nonzero;"/>
            </g>
            <g transform="matrix(1,0,0,1,216.7098,132.0562)">
                <path d="M0,-2.302C0,-2.302 0.511,-0.86 4.055,1.119C4.055,1.119 6.541,-0.327 6.88,-3.421C6.88,-3.421 2.996,-0.317 0,-2.302" style="fill:rgb(255,242,199);fill-rule:nonzero;"/>
            </g>
            <g transform="matrix(1,0,0,1,231.7855,136.693)">
                <path d="M0,-5.325C0,-5.325 1.037,-2.769 3.113,-1.897C3.113,-1.897 -1.411,0 -2.882,-1.421C-2.882,-1.421 0.442,-2.413 0,-5.325" style="fill:rgb(255,242,199);fill-rule:nonzero;"/>
            </g>
            <g transform="matrix(1,0,0,1,227.0281,130.6596)">
                <path d="M0,-7.127C0,-7.127 0.643,-3.087 -2.041,0C-2.041,0 0.77,-0.121 2.536,-2.699L0,-7.127Z" style="fill:rgb(255,242,199);fill-rule:nonzero;"/>
            </g>
            <g transform="matrix(1,0,0,1,211.0545,120.8444)">
                <path d="M0,-3.891C0,-3.891 0.861,-2.009 0.729,-0.207C0.729,-0.207 3.766,0 4.862,-2.634C4.862,-2.634 2.07,-1.442 0,-3.891" style="fill:rgb(255,242,199);fill-rule:nonzero;"/>
            </g>
            <g transform="matrix(1,0,0,1,221.1702,119.6627)">
                <path d="M0,-5.638C0,-5.638 -0.526,-2.148 -3.625,-2.819C-3.625,-2.819 -1.758,0 2.135,-2.551L0,-5.638Z" style="fill:rgb(255,242,199);fill-rule:nonzero;"/>
            </g>
            <g transform="matrix(1,0,0,1,183.3069,300.7403)">
                <path d="M0,23.385C-3.147,19.548 -2.652,13.498 1.295,10.387C2.681,9.294 4.171,8.443 5.732,7.764C5.827,7.418 5.937,7.075 6.069,6.739C6.019,6.698 5.975,6.652 5.925,6.611C3.191,5.993 1.025,3.729 -0.051,1.088C-8.92,7.013 -18.593,10.87 -28.88,12.562C-35.563,13.658 -40.979,14.17 -45.927,14.17C-48.968,14.17 -51.801,13.982 -54.59,13.595C-58.102,13.107 -61.103,12.541 -63.758,11.866C-70.388,9.59 -72.939,7.195 -73.104,5.826C-73.346,3.843 -69.765,0.244 -67.106,-1.456L-70.503,-10.885C-79.048,-9.77 -84.753,-7.078 -87.943,-2.657C-90.22,0.499 -91.002,4.354 -90.202,8.49L-90.069,9.181L-90.039,9.24C-89.588,11.134 -88.888,12.736 -88.336,13.815C-87.389,15.828 -86.305,17.225 -85.047,18.048C-80.088,23.594 -73.601,27.677 -65.742,30.193C-56.93,33.012 -49.962,34.27 -43.149,34.27C-40.266,34.27 -37.406,34.026 -34.649,33.545C-31.803,33.049 -28.941,32.705 -25.912,32.342C-21.477,31.811 -16.891,31.26 -12.354,30.189C-7.644,29.076 -2.892,27.437 2.069,25.239C1.308,24.743 0.608,24.126 0,23.385" style="fill:rgb(35,31,32);fill-rule:nonzero;"/>
            </g>
            <g transform="matrix(1,0,0,1,224.3011,125.4242)">
                <path d="M0,-6.627C-0.128,-6.625 -0.086,-1.494 -3.875,-0.133C-3.875,-0.133 -1.127,0 1.817,-2.977L0,-6.627Z" style="fill:rgb(255,242,199);fill-rule:nonzero;"/>
            </g>
            <g transform="matrix(1,0,0,1,212.8411,126.9399)">
                <path d="M0,-3.297C0,-3.297 3.781,-2.589 5.537,-3.775C5.537,-3.775 5.275,-0.146 1.967,0.478C1.967,0.478 0.671,-0.583 0,-3.297" style="fill:rgb(255,242,199);fill-rule:nonzero;"/>
            </g>
            <g transform="matrix(1,0,0,1,128.473,316.2907)">
                <path d="M0,-5.346C-0.617,-5.355 -1.296,-5.251 -2.342,-5.075C-4.384,-4.729 -6.392,-4.26 -8.403,-3.775C-8.684,-3.706 -8.963,-3.661 -9.243,-3.628C-3.841,-1.502 2.019,-0.399 8.566,0.009C5.692,-1.289 3.444,-1.888 1.756,-3.205C1.094,-3.722 0.454,-4.507 0,-5.346" style="fill:rgb(251,176,64);fill-rule:nonzero;"/>
            </g>
            <g transform="matrix(1,0,0,1,96.1844,67.1943)">
                <path d="M0,81.12C1.067,80.262 1.718,77.307 2.593,75.671C4.18,72.703 5.667,70.378 8.209,68.122C9.094,67.337 10.158,66.779 11.301,66.439C11.196,64.588 11.197,62.694 11.34,60.741C12.317,47.378 18.283,36.968 29.322,29.509C41.871,21.028 55.879,20.699 70.209,22.595C73.107,22.978 75.967,23.641 79.127,24.228C75.214,14.684 67.104,11.204 58.275,7.557C64.997,3.952 72.004,4.133 79.04,3.617C86.092,3.602 89.579,4.638 89.579,4.638C84.7,1.037 78.502,-0.78 72.636,-1.645C69.512,-2.268 66.305,-2.645 63.161,-2.58C56.072,-2.433 48.932,-2.093 41.932,-1.042C30.549,0.666 19.817,4.729 11.335,12.617C-6.072,28.806 -9.746,49.499 -5.741,71.859C-4.991,76.047 -3.828,80.01 -2.309,83.765C-1.765,82.827 -1.01,81.932 0,81.12" style="fill:rgb(237,28,36);fill-rule:nonzero;"/>
            </g>
            <g transform="matrix(1,0,0,1,223.658,322.3089)">
                <path d="M0,-87.457C-1.981,-90.547 -4.147,-93.416 -6.465,-96.105C-6.687,-94.261 -6.905,-92.415 -7.093,-90.566C-7.494,-86.645 -10.183,-84.123 -13.382,-83.102C-8.936,-76.194 -5.882,-67.395 -7.641,-56.978C-7.315,-57.103 -6.992,-57.214 -6.666,-57.346C-7.729,-54.643 -8.623,-52.144 -9.521,-49.783C-9.891,-48.729 -10.279,-47.74 -10.686,-46.828C-11.164,-45.673 -11.66,-44.545 -12.2,-43.44C-16.963,-33.699 -24.334,-26.142 -32.859,-19.574C-43.438,-11.425 -55.333,-6.092 -68.399,-3.944C-77.349,-2.475 -86.409,-1.608 -95.646,-2.893C-99.046,-3.365 -102.37,-3.956 -105.577,-4.783C-131.882,-13.704 -110.19,-27.365 -110.19,-27.365C-124.878,-25.449 -126.433,-18.802 -125.514,-14.053L-125.515,-14.053C-125.514,-14.05 -125.514,-14.048 -125.513,-14.045C-125.187,-12.365 -124.553,-10.925 -124.081,-10.016C-123.151,-8.008 -122.517,-7.775 -122.517,-7.775C-122.517,-7.775 -122.494,-7.847 -122.455,-7.966C-117.913,-2.463 -111.853,1.394 -104.53,3.737C-95.272,6.699 -85.782,8.648 -75.882,6.922C-68.578,5.648 -61.075,5.325 -53.885,3.627C-44.051,1.305 -35.004,-3.164 -26.336,-8.414C-13.619,-16.117 -3.191,-26.106 3.547,-39.374C11.961,-55.94 9.852,-72.086 0,-87.457" style="fill:rgb(237,28,36);fill-rule:nonzero;"/>
            </g>
            <g transform="matrix(1,0,0,1,119.2303,292.4231)">
                <path d="M0,-8.579C0,-8.579 16.362,-9.546 28.041,-5.703C28.041,-5.703 28.81,-1.342 26.758,-0.829C24.706,-0.315 22.653,0.967 16.497,-0.829C10.34,-2.624 1.104,-4.296 1.104,-4.296L0,-8.579Z" style="fill:rgb(35,31,32);fill-rule:nonzero;"/>
            </g>
            <g transform="matrix(1,0,0,1,189.1805,366.7377)">
                <path d="M0,-35.338C-1.55,-23.36 -7.879,-15.252 -16.458,-8.164C-26.026,-0.261 -36.832,0 -47.926,-2.247C-51.434,-2.957 -54.738,-5.941 -57.541,-8.527C-60.824,-11.558 -60.7,-16.767 -57.705,-20.093C-56.171,-21.797 -54.175,-23.084 -52.053,-24.298C-54.308,-21.328 -56.757,-18.548 -54.745,-14.582C-52.455,-10.068 -48.482,-8.687 -43.68,-8.109C-34.942,-7.058 -27.587,-9.592 -21.468,-15.7C-17.743,-19.42 -15.8,-24.043 -16.242,-29.403C-16.481,-32.296 -15.42,-33.453 -12.474,-33.664C-8.388,-33.957 -4.336,-34.732 0,-35.338" style="fill:rgb(251,176,64);fill-rule:nonzero;"/>
            </g>
            <g transform="matrix(-0.047275,-0.998882,-0.998882,0.047275,173.238411,300.516278)">
                <path d="M-25.955,-27.869C-30.99,-10.363 -31.991,7.458 -31.103,24.969C-29.438,15.307 -27.736,5.272 -25.955,-4.749C-25.716,-6.088 -25.27,-7.467 -24.597,-8.641C-20.769,-15.312 -24.61,-21.492 -25.955,-27.869" style="fill:rgb(174,115,27);fill-rule:nonzero;"/>
            </g>
            <g transform="matrix(1,0,0,1,155.138,328.9498)">
                <path d="M0,8.946C0,8.946 -12.827,9.617 -29.245,4.472C-45.663,-0.671 -12.313,3.943 -11.288,3.816C-10.261,3.69 -5.881,3.876 -5.37,4.472C-4.859,5.069 -4.104,4.755 -3.335,5.505C-2.565,6.255 0,8.946 0,8.946" style="fill:rgb(35,31,32);fill-rule:nonzero;"/>
            </g>
            <g transform="matrix(1,0,0,1,131.9793,345.0114)">
                <path d="M0,-5.433C0,-5.433 4.152,-8.855 12.619,-10.557C21.086,-12.258 13.004,-10.557 13.004,-10.557L21.085,-7.99C21.085,-7.99 10.536,-2.001 7.826,2.412C5.116,6.825 7.617,-1.063 7.232,-1.255C6.847,-1.448 5.448,-3.781 5.448,-3.781C5.448,-3.781 3.769,-4.509 3.384,-4.326C3,-4.141 0,-5.433 0,-5.433" style="fill:rgb(35,31,32);fill-rule:nonzero;"/>
            </g>
            <g transform="matrix(1,0,0,1,198.0643,134.8889)">
                <path d="M0,-12.349C0,-12.349 -6.926,-12.349 -10.261,-8.501C-10.261,-8.501 -0.438,-6.694 3.116,-2.98C6.67,0.734 4.791,-9.476 4.448,-10.271C4.104,-11.066 3.078,-13.083 2.309,-12.845C1.539,-12.605 0,-12.349 0,-12.349" style="fill:rgb(35,31,32);fill-rule:nonzero;"/>
            </g>
            <g transform="matrix(1,0,0,1,202.8568,143.851)">
                <path d="M0,-11.316C0,-11.316 -5.049,-14.942 -11.976,-12.483C-11.976,-12.483 -4.408,-10.387 -2.848,-4.67C-1.953,-1.391 3.16,3.626 3.16,3.626C3.16,3.626 2.39,-6.689 2.134,-6.945C1.877,-7.202 0,-11.316 0,-11.316" style="fill:rgb(35,31,32);fill-rule:nonzero;"/>
            </g>
            <g transform="matrix(1,0,0,1,238.2249,48.6256)">
                <path d="M0,82.343C-0.067,82.152 1.214,79.714 2.427,81.13C3.641,82.546 2.225,83.557 4.045,84.164C5.866,84.77 1.416,86.388 0,82.343M-20.31,37.322C-14.454,38.701 -14.454,47.085 -14.454,47.085C-23.178,46.126 -20.31,37.322 -20.31,37.322M9.012,80.005C7.944,76.264 2.047,74.994 2.047,74.994C-6.372,70.294 -8.853,58.048 -7.135,51.232C-5.417,44.415 -6.099,38.377 -7.871,36.51C-9.643,34.644 -8.479,32.994 -8.479,32.994C-4.361,25.4 -8.465,16.332 -8.465,16.332C-8.465,16.332 -12.521,5.445 -24.979,-0.251C-37.437,-5.947 -33.902,-17.656 -33.902,-17.656C-39.448,-3.659 -33.673,0.412 -26.249,5.647C-18.824,10.881 -14.747,15.608 -15.592,21.187C-16.438,26.765 -17.799,21.689 -17.799,21.689C-18.869,16.2 -20.503,10.269 -33.738,5.924C-44.723,2.317 -43.574,-10.068 -43.574,-10.068C-52.078,6.373 -32.684,14.76 -29.332,15.981C-27.675,16.585 -25.539,20.891 -27.18,21.952C-28.541,22.048 -29.845,21.187 -30.514,20.647C-30.67,20.51 -30.811,20.372 -30.98,20.238C-32.23,19.152 -33.856,18.257 -35.695,17.516C-35.699,17.514 -35.703,17.512 -35.707,17.511C-52.171,10.447 -73.112,14.313 -73.112,14.313C-57.149,15.402 -50.171,22.899 -47.45,27.2C-53.899,24.723 -64.037,22.897 -78.244,26.114C-78.244,26.114 -60.962,33.35 -58.962,44.898C-90.208,38.488 -102.361,46.624 -102.361,46.624C-93.43,44.458 -83.2,45.465 -74.345,47.355C-40.567,55.102 -34.361,70.237 -34.143,70.795C-31.8,76.701 -31.232,82.2 -31.232,82.2C-36.67,74.781 -45.547,77.049 -45.547,77.049C-45.547,77.049 -39.651,77.5 -34.215,83.803C-28.778,90.106 -23.734,89.957 -23.734,89.957C-23.734,89.957 -26.906,98.835 -32.707,90.423C-38.509,82.011 -43.31,83.566 -43.31,83.566C-35.791,85.162 -38.117,88.462 -34.015,94.03C-29.913,99.597 -25.256,99.999 -22.517,96.99C-19.778,93.981 -17.547,94.319 -17.547,94.319C-11.386,94.34 -10.663,88.058 -10.663,88.058C-10.663,88.058 -26.114,84.574 -27.188,72.085C-28.263,59.595 -37.531,53.472 -37.531,53.472C-17.041,46.306 -9.443,86.036 0.308,87.97C10.059,89.905 9.012,80.005 9.012,80.005" style="fill:rgb(237,28,36);fill-rule:nonzero;"/>
            </g>
            <g transform="matrix(1,0,0,1,122.8587,139.2033)">
                <path d="M0,-40.575C0,-40.575 17.129,-56.58 52.453,-47.781C52.453,-47.781 50.333,-58.625 31.601,-64.452C31.601,-64.452 -11.609,-65.809 -22.458,-27.255C-33.308,11.299 -10.166,25.234 -10.166,25.234C-10.166,25.234 -11.18,17.248 -10.057,11.899L-14.68,10.99L-12.422,5.901C-12.422,5.901 -17.636,-2.002 -13.757,-20.406C-13.757,-20.406 -11.158,-33.104 0,-40.575" style="fill:rgb(176,28,36);fill-rule:nonzero;"/>
            </g>
            <g transform="matrix(1,0,0,1,208.032,327.8252)">
                <path d="M0,-105.321C0,-105.321 25.191,-80.527 16.12,-56.498C16.12,-56.498 7.22,-11.256 -54.006,-3.905C-115.231,3.447 -106.54,-25.969 -106.54,-25.969C-106.54,-25.969 -106.049,-29.361 -94.564,-32.882C-94.564,-32.882 -107.362,-32.041 -110.1,-23.832C-110.1,-23.832 -112.552,-15.452 -102.818,-9.381C-102.818,-9.381 -94.386,-0.985 -78.215,1.017C-62.044,3.019 -43.618,-0.851 -43.618,-0.851C-43.618,-0.851 -26.105,-3.429 -8.716,-15.17C8.673,-26.91 16.174,-39.581 16.174,-39.581C16.174,-39.581 23.569,-49.736 24.592,-64.818C24.592,-64.818 25.083,-77.667 17.647,-89.614C10.213,-101.561 2.173,-108.768 2.173,-108.768L0,-105.321Z" style="fill:rgb(176,28,36);fill-rule:nonzero;"/>
            </g>
            <g transform="matrix(0.22764,0.973745,0.973745,-0.22764,140.845937,91.283564)">
                <path d="M17.734,-9.262C17.734,-9.262 14.329,2.98 18.962,18.233L17.734,25.367C17.734,25.367 7.568,4.777 14.537,-12.94C14.537,-12.94 16.991,-10.968 17.734,-9.262" style="fill:rgb(174,115,27);fill-rule:nonzero;"/>
            </g>
            <g transform="matrix(-0.851666,-0.524084,-0.524084,0.851666,112.278893,123.588838)">
                <path d="M-7.291,-20.327C-7.291,-20.327 -8.866,-20.181 -11.752,-20.77C-11.752,-20.77 -5.754,-10.515 -7.291,1.118C-7.291,1.118 -0.77,1.658 1.082,-1.734C1.082,-1.734 -1.845,0.068 -4.379,-6.462" style="fill:rgb(174,115,27);fill-rule:nonzero;"/>
            </g>
            <g transform="matrix(0.814485,0.580184,0.580184,-0.814485,219.994977,195.909285)">
                <path d="M-3.184,-4.829L13.521,-4.829C13.521,-4.829 12.164,-9.183 6.738,-15.2L4.02,-17.852C4.02,-17.852 2.369,-11.834 -3.184,-4.829" style="fill:rgb(251,176,64);fill-rule:nonzero;"/>
            </g>
            <g transform="matrix(1,0,0,1,229.5794,233.7144)">
                <path d="M0,-24.425C0,-24.425 12.291,-16.242 14.758,-5.433C14.758,-5.433 8.846,-1.505 0.979,-1.4C0.979,-1.4 -2.296,0 -5.517,-4.243C-8.738,-8.487 -16.491,-17.52 -16.491,-17.52C-16.491,-17.52 -5.682,-19.595 0,-24.425" style="fill:rgb(251,176,64);fill-rule:nonzero;"/>
            </g>
            <g transform="matrix(-0.763462,0.645852,0.645852,0.763462,264.951103,241.899063)">
                <path d="M7.849,-20.597C7.849,-20.597 10.789,-7.963 21.36,0.414C21.36,0.414 12.778,6.072 7.849,1.306C7.849,1.306 -0.013,-6.057 -1.775,-21.683C-1.775,-21.683 4.034,-19.843 7.849,-20.597" style="fill:rgb(174,115,27);fill-rule:nonzero;"/>
            </g>
            <g transform="matrix(-0.911861,0.410499,0.410499,0.911861,259.407326,272.86477)">
                <path d="M4.728,-17.02C4.728,-17.02 8.731,-6.975 17.323,1.77C17.323,1.77 9.579,3.365 4.728,0.985C4.728,0.985 -3.175,-4.968 -8.566,-17.943C-8.566,-17.943 -2.682,-14.888 4.728,-17.02" style="fill:rgb(174,115,27);fill-rule:nonzero;"/>
            </g>
            <g transform="matrix(1,0,0,1,224.2308,289.2266)">
                <path d="M0,15.887C0,15.887 14.446,9.225 19.835,-5.491L28.184,-7.516C28.184,-7.516 17.354,23.403 0,15.887" style="fill:rgb(174,115,27);fill-rule:nonzero;"/>
            </g>
            <g transform="matrix(-0.823994,-0.566598,-0.566598,0.823994,203.395852,319.542013)">
                <path d="M-6.836,-20.781C-6.836,-20.781 -5.1,-2.319 4.21,5.185C4.21,5.185 -0.301,6.355 -6.836,-1.826C-6.836,-1.826 -15.615,-13.832 -17.415,-23.968L-6.836,-20.781Z" style="fill:rgb(174,115,27);fill-rule:nonzero;"/>
            </g>
            <g transform="matrix(1,0,0,1,129.2957,356.6649)">
                <path d="M0,2.437C0,2.437 18.042,26.932 46.142,6.306C46.142,6.306 60.302,-3.889 65.838,-27.249C65.838,-27.249 67.189,-26.641 68.932,-27.66C68.932,-27.66 71.163,-0.852 39.609,16.08C39.609,16.08 10.108,30.097 0,2.437" style="fill:rgb(176,28,36);fill-rule:nonzero;"/>
            </g>
            <g transform="matrix(1,0,0,1,124.4119,302.5997)">
                <path d="M0,11.759C-0.34,11.636 -6.435,4.729 3.723,0.624C3.723,0.624 13.429,-1.941 20.966,3.19L21.32,5.908L18.809,6.346L7.293,3.756C7.293,3.756 3.165,4.7 3.428,6.112C3.692,7.523 3.682,10.398 12.627,13.7C12.627,13.7 4.863,13.511 0,11.759" style="fill:rgb(174,115,27);fill-rule:nonzero;"/>
            </g>
            <g transform="matrix(1,0,0,1,138.8426,300.0694)">
                <path d="M0,5.677C0,5.549 1.873,3.714 1.898,-1.59L6.186,-0.912L6.186,6.447C6.186,6.447 4.261,7.267 3.093,6.921C1.924,6.574 0,5.677 0,5.677" style="fill:rgb(174,115,27);fill-rule:nonzero;"/>
            </g>
            <g transform="matrix(1,0,0,1,172.7894,332.8136)">
                <path d="M0,8.675C0,8.675 0.379,6.637 0.128,4.194C-0.122,1.75 1.386,0.927 1.386,0.927C1.386,0.927 1.943,0.53 5.132,0.159C8.321,-0.212 16.391,-1.414 16.391,-1.414C16.391,-1.414 15.489,5.216 13.007,10.089C13.007,10.089 8.331,5.339 0,8.675" style="fill:rgb(174,115,27);fill-rule:nonzero;"/>
            </g>
            <g transform="matrix(1,0,0,1,137.1273,361.7118)">
                <path d="M0,-19.272C0,-19.272 -14.413,-5.54 9.459,-0.511C33.332,4.516 41.876,-23.788 41.876,-23.788L35.807,-21.388C35.807,-21.388 34.501,-7.584 17.205,-3.332C17.205,-3.332 6.142,-1.075 -0.088,-6.18C-0.088,-6.18 -7.536,-12.634 0,-19.272" style="fill:rgb(174,115,27);fill-rule:nonzero;"/>
            </g>
            <g transform="matrix(0.488405,-0.872617,-0.872617,-0.488405,178.620445,339.276449)">
                <path d="M0.126,-2.961C0.126,-2.961 -0.576,-0.245 -3.955,-0.357C-7.335,-0.47 -0.488,2.471 0.126,1.338C0.739,0.204 0.975,-3.51 0.975,-3.51L0.126,-2.961Z" style="fill:rgb(174,115,27);fill-rule:nonzero;"/>
            </g>
            <g transform="matrix(1,0,0,1,135.8636,143.4448)">
                <path d="M0,-48.195C0,-48.195 12.198,-56.32 43.399,-49.922C74.6,-43.523 74.832,-25.265 74.832,-25.265C74.832,-25.265 74.167,-11.174 91.699,-6.761C91.699,-6.761 90.583,-1.447 86.507,-0.672C82.431,0.103 83.165,-0.621 79.844,2.171C79.844,2.171 74.567,8.125 67.643,-1.596C67.643,-1.596 64.646,-9.822 59.051,-11.254C59.051,-11.254 62.465,-11.861 66.993,-7.682C66.993,-7.682 71.908,-0.76 74.601,-0.785C77.293,-0.81 78.627,-4.862 78.627,-4.862C78.627,-4.862 73.24,-4.488 66.993,-12.077C66.993,-12.077 63.271,-16.646 56.814,-17.771C56.814,-17.771 66.114,-20.182 71.129,-12.619C71.129,-12.619 71.875,-28.074 52.65,-38.492C33.426,-48.91 11.21,-51.328 0,-48.195" style="fill:rgb(176,28,36);fill-rule:nonzero;"/>
            </g>
            <g transform="matrix(1,0,0,1,159.9813,105.9656)">
                <path d="M0,-31.226C0,-31.226 24.901,-32.93 32.9,-19.582C32.991,-19.431 33.08,-19.277 33.166,-19.122C40.862,-5.274 40.092,1.704 40.092,1.704L19.539,-9.892L19.281,-12.442C19.281,-12.442 18.782,-23.316 0,-31.226" style="fill:rgb(176,28,36);fill-rule:nonzero;"/>
            </g>
            <g transform="matrix(1,0,0,1,194.6507,100.1949)">
                <path d="M0,-61.637C0,-61.637 -4.795,-51.535 3.157,-45.849C11.109,-40.163 18.292,-38.367 20.345,-31.954C22.397,-25.541 26.245,-25.028 26.501,-18.102C26.501,-18.102 28.041,-20.924 27.784,-23.232C27.784,-23.232 30.35,-20.667 30.093,-15.28C30.093,-15.28 31.632,-17.075 31.375,-19.641C31.375,-19.641 33.226,-13.847 32.172,-10.972C32.172,-10.972 34.368,-13.227 34.368,-14.51C34.368,-15.793 36.336,-9.636 35.48,-5.275C34.625,-0.914 36.158,7.588 36.158,7.588C36.158,7.588 35.317,4.719 37.151,-3.998C38.986,-12.715 34.756,-16.839 34.756,-16.839C34.756,-16.839 34.058,-17.464 35.752,-19.964C37.447,-22.463 36.77,-28.856 36.77,-28.856C36.77,-28.856 35.751,-41.603 22.875,-49.477C22.875,-49.477 6.269,-55.019 9.672,-69.225C9.672,-69.225 4.127,-57.299 10.825,-51.168C17.523,-45.037 19.801,-44.782 22.661,-41.69C25.52,-38.597 30.279,-34.356 26.979,-27.768C26.979,-27.768 26.446,-27.872 25.534,-31.056C24.623,-34.241 23.682,-38.886 16.242,-42.988C8.801,-47.09 8.26,-45.018 2.887,-50.672C2.887,-50.672 -0.079,-54.977 0,-61.637" style="fill:rgb(176,28,36);fill-rule:nonzero;"/>
            </g>
            <g transform="matrix(1,0,0,1,215.7171,98.2545)">
                <path d="M0,-9.427C0,-9.427 -1.47,-3.078 7.38,-1.346C7.38,-1.346 -1.993,0 0,-9.427" style="fill:rgb(176,28,36);fill-rule:nonzero;"/>
            </g>
            <g transform="matrix(1,0,0,1,225.5184,135.0788)">
                <path d="M0,2.237C0,2.237 -7.273,0.547 -10.469,-4.542C-10.469,-4.542 -12.055,2.895 -3.654,6.779C-3.654,6.779 -0.546,6.099 0,2.237" style="fill:rgb(237,28,36);fill-rule:nonzero;"/>
            </g>
            <g transform="matrix(1,0,0,1,204.3231,82.5456)">
                <path d="M0,-51.576C0,-51.576 -3.608,-42.652 1.266,-37.778C6.14,-32.904 13.772,-32.39 22.045,-20.654C22.045,-20.654 27.625,-12.733 24.97,0C24.97,0 27.789,-3.625 27.183,-10.034C26.577,-16.443 24.187,-21.486 18.841,-27.43C13.494,-33.374 7.02,-34.167 5.456,-35.939C3.892,-37.711 -1.864,-42.501 0,-51.576" style="fill:rgb(237,28,36);fill-rule:nonzero;"/>
            </g>
            <g transform="matrix(-0.155934,0.987767,0.987767,0.155934,196.031153,44.984314)">
                <path d="M22.556,-27.741C22.556,-27.741 17.35,-7.648 22.461,5.626C27.573,18.899 22.556,19.093 22.556,19.093C22.556,19.093 24.249,17.411 22.17,15.325C20.091,13.237 15.011,-4.074 22.556,-27.741" style="fill:rgb(176,28,36);fill-rule:nonzero;"/>
            </g>
            <g transform="matrix(1,0,0,1,230.9881,135.435)">
                <path d="M0,-26.484C0,-26.484 -0.216,-19.095 5.171,-13.964C10.558,-8.834 12.61,-10.757 13.893,-8.834C15.176,-6.909 16.196,-2.753 14.083,0C14.083,0 16.489,-1.864 16.281,-6.482C16.281,-6.482 16.24,-8.289 13.399,-10.143C10.558,-11.997 9.284,-11.815 9.284,-11.815C9.284,-11.815 2.012,-15.104 0,-26.484" style="fill:rgb(176,28,36);fill-rule:nonzero;"/>
            </g>
            <g transform="matrix(-0.420149,-0.907455,-0.907455,0.420149,238.103369,126.909168)">
                <path d="M-3.173,-1.783C-3.173,-1.783 -1.768,-1.057 -1.766,0.215C-1.764,1.487 -3.173,1.88 -3.173,1.88C-3.173,1.88 -0.742,1.843 -0.995,-0.057C-1.231,-1.834 -3.173,-1.783 -3.173,-1.783" style="fill:rgb(176,28,36);fill-rule:nonzero;"/>
            </g>
            <g transform="matrix(1,0,0,1,182.3245,97.1575)">
                <path d="M0,-19.143C0,-19.143 12.875,-13.14 11.336,0.905C11.336,0.905 13.948,-8.742 12.403,-20.048L0,-19.143Z" style="fill:rgb(237,28,36);fill-rule:nonzero;"/>
            </g>
            <g transform="matrix(1,0,0,1,197.3157,135.3819)">
                <path d="M0,-36.55C0,-36.55 11.371,-39.243 17.614,-33.471C23.858,-27.699 29.245,-19.234 31.938,-14.424C34.632,-9.614 37.604,0.993 45.354,1.269C45.354,1.269 40.165,2.693 37.03,-1.798C33.895,-6.288 32.896,-7.964 32.896,-7.964C32.896,-7.964 26.586,-19.503 22.625,-24.948C18.663,-30.393 12.721,-36.175 3.378,-33.284C-5.964,-30.393 -1.757,-34.818 -1.757,-34.818L0,-36.55Z" style="fill:rgb(176,28,36);fill-rule:nonzero;"/>
            </g>
            <g transform="matrix(1,0,0,1,109.616,12.6936)">
                <path d="M0,68.026C0.416,64.304 2.708,61.85 5.733,60.679C6.988,59.916 7.458,59.754 9.616,59.167C9.722,59.151 9.825,59.151 9.93,59.138C10.281,56.363 11.314,53.767 13,51.611C-3.537,49.713 -25.413,42.556 -38.121,19.604L-55.03,-10.936L-57.337,23.897C-57.582,27.592 -56.631,41.161 -34.131,60.601C-24.485,68.934 -13.916,74.877 -4.973,78.962C-4.973,78.559 -4.951,78.159 -4.874,77.774C-4.358,75.19 -3.984,74.357 -2.739,72.101C-2.161,71.053 -1.186,70.172 -0.379,69.352C-0.274,69.245 -0.156,69.15 -0.04,69.053C-0.046,68.707 -0.038,68.363 0,68.026" style="fill:rgb(35,31,32);fill-rule:nonzero;"/>
            </g>
            <g transform="matrix(1,0,0,1,119.908,282.041)">
                <path d="M0,-204.192C-31.087,-214.799 -46.381,-235.174 -50.802,-242.025L-50.783,-242.111C-50.486,-243.454 -50.015,-244.885 -49.503,-246.222C-49.946,-246.695 -50.37,-247.185 -50.746,-247.712C-51.316,-248.51 -51.87,-249.313 -52.554,-250.021C-54.103,-251.624 -54.747,-254.244 -54.614,-256.453L-60.852,-260.819L-60.988,-261.36C-61.94,-259.936 -63.275,-258.776 -64.848,-258.064C-65.667,-257.692 -66.535,-257.456 -67.418,-257.339C-68.356,-256.215 -69.567,-255.364 -70.946,-254.788L-70.955,-254.52C-109.743,-205.237 -115.08,-152.95 -115.604,-146.439C-124.491,-94.679 -112.62,-42.156 -101.071,-7.162C-88.595,30.64 -74.152,56.103 -73.543,57.168L-64.634,52.078L-55.542,47.322C-55.542,47.322 -55.498,47.396 -55.42,47.562C-55.624,47.121 -60.342,36.588 -65.588,-2.903C-70.586,-40.501 -53.888,-59.944 -53.235,-60.688L-47.59,-66.869L-52.51,-73.64C-52.547,-73.691 -55.456,-80.308 -48.607,-92.919C-40.465,-107.914 -24.871,-111.086 -24.288,-111.199L-17.387,-112.423C-17.764,-112.761 -18.12,-113.129 -18.435,-113.546C-19.989,-115.596 -21.381,-117.858 -22.43,-120.257C-25.469,-119.934 -28.664,-120.979 -30.492,-123.55C-35.244,-130.233 -34.86,-139.894 -32.207,-147.38C-32.195,-147.414 -32.178,-147.444 -32.166,-147.478C-35.761,-157.05 -36.482,-168.55 -32.292,-177.138C-30.09,-181.652 -25.309,-184.334 -20.331,-182.387C-18.106,-181.517 -16.227,-179.625 -15.195,-177.382C-10.116,-185.608 -3.395,-193.047 3.649,-199.355C1.956,-200.502 0.627,-202.182 0,-204.192" style="fill:rgb(35,31,32);fill-rule:nonzero;"/>
            </g>
            <g transform="matrix(1,0,0,1,124.1727,161.6072)">
                <path d="M0,4.17L7.609,2.82L0.324,0C0.552,1.322 0.466,2.728 0,4.17" style="fill:rgb(35,31,32);fill-rule:nonzero;"/>
            </g>
            <g transform="matrix(1,0,0,1,62.5184,92.2839)">
                <path d="M0,-55.016C0,-55.016 -0.706,-44.363 19.676,-26.754C40.058,-9.145 65.449,-3.016 65.449,-3.016C65.449,-3.016 73.305,0 80.31,-4.281C87.314,-8.561 80.553,-17.658 80.553,-17.658C80.553,-17.658 25.124,-9.64 0,-55.016" style="fill:rgb(237,28,36);fill-rule:nonzero;"/>
            </g>
            <g transform="matrix(1,0,0,1,43.2122,90.5447)">
                <path d="M0,178.856L-1.226,171.559L-1.221,171.569C-11.124,113.068 -11.604,76.263 -11.604,76.263L-11.599,76.215C-14.111,38.695 -6.217,0.93 -0.151,-19.439C4.887,-36.357 11.66,-47.201 15.894,-52.83C17.199,-58.737 20.481,-64.718 20.481,-64.718C-24.854,-12.962 -28.713,46.318 -28.713,46.318C-45.527,142.777 12.062,243.574 12.062,243.574C12.062,243.574 6.699,233.323 0.935,189.945C0.421,186.082 0.126,182.39 0,178.856" style="fill:rgb(237,28,36);fill-rule:nonzero;"/>
            </g>
            <g transform="matrix(1,0,0,1,19.2088,334.1185)">
                <path d="M0,-223.208C0,-223.208 -14.801,-122.682 36.065,0C36.065,0 1.486,-64.892 -5.559,-126.734C-12.603,-188.576 0,-223.208 0,-223.208" style="fill:rgb(176,28,36);fill-rule:nonzero;"/>
            </g>
            <g transform="matrix(1,0,0,1,58.7161,268.4629)">
                <path d="M0,-225.822C-0.785,-202.305 37.035,-153.253 38.496,-151.367C2.882,-196.88 -2.797,-217.642 -2.797,-217.642C-19.498,-161.338 3.007,-109.751 3.007,-109.751C-17.431,-145.164 -8.789,-207.767 -8.789,-207.767C-23.127,-176.5 -26.13,-140.517 -25.67,-112.97C-25.49,-106.918 -25.183,-100.512 -24.788,-93.95C-23.612,-78.473 -21.736,-68.575 -21.736,-68.575C-22.397,-70.982 -22.981,-73.419 -23.519,-75.87C-21.2,-46.528 -17.782,-17.573 -16.279,-5.397L-15.536,0C-16.505,-35.53 0.38,-54.03 0.38,-54.03C0.38,-54.03 -7.184,-64.44 3.567,-84.238C14.317,-104.036 35.112,-107.724 35.112,-107.724C35.112,-107.724 24.873,-111.689 28.277,-125.796C31.683,-139.902 44.16,-145.723 44.16,-145.723C47.954,-166.08 68.449,-177.803 68.449,-177.803C20.676,-189.571 1.754,-222.587 0,-225.822" style="fill:rgb(176,28,36);fill-rule:nonzero;"/>
            </g>
            <g transform="matrix(1,0,0,1,93.8279,63.9966)">
                <path d="M0,96.742C0,96.742 -11.985,99.381 -23.865,109.917C-23.865,109.917 -38.813,86.842 -43.051,49.391C-47.289,11.94 -37.909,-13.175 -37.909,-13.175C-37.909,-13.175 -43.959,26.187 -25.74,55.233C-25.74,55.233 -16.737,70.936 -7.514,83.424C-7.514,83.424 -9.405,93.468 0,96.742" style="fill:rgb(237,28,36);fill-rule:nonzero;"/>
            </g>
            <g transform="matrix(1,0,0,1,58.7161,122.7399)">
                <path d="M0,-80.099C0,-80.099 7.123,-45.569 44.532,-18.575L50.505,-15.071C50.505,-15.071 44.829,-8.778 44.16,0C44.16,0 27.462,-18.111 21.367,-30.063C21.367,-30.063 -0.051,-60.549 0,-80.099" style="fill:rgb(237,28,36);fill-rule:nonzero;"/>
            </g>
            <g transform="matrix(1,0,0,1,102.2357,176.3771)">
                <path d="M0,-53.306C-5.628,-49.334 -9.371,-44.262 -10.948,-37.928C-10.948,-37.928 -13.449,-21.448 10.209,0L10.879,-2.284C10.879,-2.284 8.698,-8.102 10.812,-12.906C10.812,-12.906 9.558,-18.794 10.472,-24.793L10.416,-26.184L5.943,-26.184L8.201,-31.273L2.729,-34.084C2.729,-34.084 0.099,-51.764 -0.222,-52.148C-0.542,-52.533 0,-53.306 0,-53.306" style="fill:rgb(237,28,36);fill-rule:nonzero;"/>
            </g>
            <g transform="matrix(1,0,0,1,111.7005,73.1969)">
                <path d="M0,-0.347C0,-0.347 14.666,3.455 32.057,2.474C32.057,2.474 7.349,2.162 1.942,-3.802L0,-0.347Z" style="fill:rgb(35,31,32);fill-rule:nonzero;"/>
            </g>
            <g transform="matrix(1,0,0,1,143.7571,77.8222)">
                <path d="M0,-2.151C0,-2.151 3.891,10.083 -12.203,8.075C-28.296,6.067 -62.183,-10.75 -66.703,-17.006C-66.703,-17.006 -56.85,-6.094 -39.281,2.381C-21.712,10.855 -13.694,12.027 -13.694,12.027C-13.694,12.027 -1.484,14.855 2.249,5.981C2.249,5.981 2.985,2.8 0,-2.151" style="fill:rgb(176,28,36);fill-rule:nonzero;"/>
            </g>
            <g transform="matrix(0.560896,0.827886,0.827886,-0.560896,38.573957,22.503591)">
                <path d="M11.943,-0.093C11.943,-0.093 9.318,10.24 3.085,16.109C-3.147,21.979 11.943,14.545 11.943,14.545C11.943,14.545 15.196,5.832 15.607,3.695C16.018,1.558 11.943,-0.093 11.943,-0.093" style="fill:rgb(35,31,32);fill-rule:nonzero;"/>
            </g>
            <g transform="matrix(0.741248,0.671232,0.671232,-0.741248,49.21629,324.119146)">
                <path d="M5.66,-12.293C6.085,-12.443 32.418,-18.767 52.745,-8.348C52.745,-8.348 15.795,3.156 5.66,11.801C-4.475,20.445 11.202,-3.346 11.202,-3.346L5.66,-12.293Z" style="fill:rgb(35,31,32);fill-rule:nonzero;"/>
            </g>
            <g transform="matrix(1,0,0,1,104.7415,127.6589)">
                <path d="M0,-22.618L7.954,-17.84C7.954,-17.84 3.383,-9.229 3.149,-0.943L3.107,0L-3.682,-6.933L-2.728,-15.743L0,-22.618Z" style="fill:rgb(237,28,36);fill-rule:nonzero;"/>
            </g>
            <g transform="matrix(-0.635103,0.772427,0.772427,0.635103,98.573779,133.813475)">
                <path d="M13.158,-3.797C13.158,-3.797 5.418,-8.867 -10.624,-3.994C-10.624,-3.994 5.656,-8.843 13.158,1.774C20.66,12.391 15.13,-0.625 15.13,-0.625L13.158,-3.797Z" style="fill:rgb(35,31,32);fill-rule:nonzero;"/>
            </g>
            <g transform="matrix(1,0,0,1,63.6937,136.8735)">
                <path d="M0,-111.047C0,-111.047 -39.002,-55.87 -46.334,0L-48.706,-8.512C-48.706,-8.512 -39.368,-70.687 0,-111.047" style="fill:rgb(176,28,36);fill-rule:nonzero;"/>
            </g>
            <g transform="matrix(1,0,0,1,102.2357,163.4711)">
                <path d="M0,-40.4C0,-40.4 -4.428,-24.569 10.812,0C10.812,0 9.771,-6.786 10.472,-11.887L10.416,-13.278L5.943,-13.278L8.201,-18.367C8.201,-18.367 4.524,-26.234 4.642,-26.742C4.76,-27.25 3.99,-33.663 3.733,-34.689C3.477,-35.715 0,-40.4 0,-40.4" style="fill:rgb(176,28,36);fill-rule:nonzero;"/>
            </g>
        </g>
    </g>
</svg>
